<svg width="257" height="77" viewBox="0 0 257 77" fill="none" xmlns="http://www.w3.org/2000/svg">
<path d="M254.803 67.25C254.803 68.2066 254.614 69.1537 254.248 70.0374C253.882 70.921 253.345 71.7238 252.668 72.3998C251.991 73.0759 251.187 73.6119 250.303 73.9772C249.419 74.3426 248.471 74.5301 247.514 74.5291H8.99078C7.05754 74.5312 5.20264 73.7654 3.83403 72.4004C2.46541 71.0354 1.69515 69.1828 1.69263 67.25V9.20146C1.69515 7.26785 2.46511 5.41428 3.83345 4.04772C5.20179 2.68117 7.05666 1.91334 8.99078 1.91284H247.512C248.47 1.91284 249.418 2.10138 250.302 2.46769C251.187 2.834 251.99 3.37091 252.667 4.04774C253.344 4.72458 253.881 5.52809 254.247 6.41237C254.613 7.29666 254.801 8.24439 254.801 9.20146L254.803 67.25Z" fill="white"/>
<path d="M247.514 76.2226H8.99009C6.60856 76.2221 4.32449 75.2771 2.63906 73.595C0.953639 71.9129 0.00453141 69.631 0 67.2501L0 9.20345C0.00352314 6.82136 0.952004 4.53794 2.63737 2.85408C4.32274 1.17023 6.60738 0.223446 8.99009 0.221436L247.512 0.221436C249.894 0.224449 252.178 1.17155 253.863 2.85519C255.549 4.53883 256.497 6.82167 256.502 9.20345V67.2501C256.506 72.1992 252.466 76.2226 247.514 76.2226Z" fill="#A6A6A6"/>
<path d="M254.803 67.25C254.803 68.2066 254.614 69.1537 254.248 70.0374C253.882 70.921 253.345 71.7238 252.668 72.3998C251.991 73.0759 251.187 73.6119 250.303 73.9772C249.419 74.3426 248.471 74.5301 247.514 74.5291H8.99078C7.05754 74.5312 5.20264 73.7654 3.83403 72.4004C2.46541 71.0354 1.69515 69.1828 1.69263 67.25V9.20146C1.69515 7.26785 2.46511 5.41428 3.83345 4.04772C5.20179 2.68117 7.05666 1.91334 8.99078 1.91284H247.512C248.47 1.91284 249.418 2.10138 250.302 2.46769C251.187 2.834 251.99 3.37091 252.667 4.04774C253.344 4.72458 253.881 5.52809 254.247 6.41237C254.613 7.29666 254.801 8.24439 254.801 9.20146L254.803 67.25Z" fill="black"/>
<path d="M57.2748 37.8223C57.2196 31.6968 62.2916 28.7167 62.5236 28.578C59.6511 24.3911 55.1988 23.819 53.6342 23.7734C49.8949 23.38 46.2676 26.0103 44.3628 26.0103C42.4199 26.0103 39.4866 23.8114 36.3251 23.876C32.2569 23.9387 28.4509 26.2935 26.3636 29.9502C22.0558 37.4061 25.2686 48.3627 29.3958 54.3894C31.4603 57.3428 33.8728 60.6365 37.0304 60.5206C40.1196 60.3951 41.2736 58.5535 45.0015 58.5535C48.6953 58.5535 49.7789 60.5206 52.9993 60.4464C56.3147 60.3951 58.4021 57.4816 60.3944 54.5034C62.7802 51.1223 63.7383 47.7888 63.7764 47.6177C63.7003 47.5911 57.3394 45.1622 57.2748 37.8223ZM51.1914 19.8088C52.8529 17.7315 53.9897 14.9054 53.6742 12.0375C51.2693 12.1439 48.2619 13.7005 46.53 15.7322C44.9977 17.5225 43.629 20.4569 43.9826 23.2165C46.684 23.418 49.4576 21.8538 51.1914 19.8088Z" fill="white"/>
<path d="M247.512 0.221436H119.751L169.793 76.2226H247.512C249.894 76.2206 252.178 75.2744 253.863 73.5913C255.548 71.9083 256.497 69.6258 256.502 67.2444V9.20345C256.498 6.82152 255.549 4.53838 253.864 2.85464C252.179 1.17089 249.894 0.223948 247.512 0.221436Z" fill="url(#paint0_linear_375_1548)"/>
<path d="M102.021 60.0969H97.7042L95.3392 52.6676H87.1191L84.8663 60.0969H80.6631L88.8091 34.8043H93.8393L102.021 60.0969ZM94.6263 49.5507L92.4877 42.9463C92.2614 42.2716 91.8356 40.6827 91.212 38.1816H91.136C90.8851 39.2573 90.4839 40.8462 89.9345 42.9463L87.832 49.5507H94.6263ZM122.929 50.7538C122.929 53.8555 122.087 56.3072 120.401 58.107C118.891 59.7092 117.015 60.5093 114.778 60.5093C112.361 60.5093 110.624 59.6484 109.569 57.9227V67.4919H105.516V47.8535C105.516 45.9055 105.464 43.908 105.365 41.8592H108.93L109.156 44.7499H109.232C110.584 42.5719 112.635 41.4829 115.388 41.4829C117.54 41.4829 119.336 42.3324 120.773 44.0334C122.209 45.7382 122.929 47.9771 122.929 50.7538ZM118.8 50.902C118.8 49.1269 118.401 47.6635 117.599 46.5098C116.722 45.3106 115.546 44.71 114.07 44.71C113.07 44.71 112.162 45.0445 111.35 45.704C110.536 46.3692 110.004 47.2378 109.755 48.3135C109.644 48.7158 109.581 49.1298 109.567 49.5469V52.5897C109.567 53.9144 109.974 55.0338 110.787 55.9499C111.601 56.8622 112.658 57.3202 113.958 57.3202C115.485 57.3202 116.673 56.7291 117.523 55.5565C118.374 54.38 118.8 52.8292 118.8 50.902ZM143.911 50.7538C143.911 53.8555 143.069 56.3072 141.383 58.107C139.871 59.7092 137.997 60.5093 135.758 60.5093C133.341 60.5093 131.604 59.6484 130.549 57.9227V67.4919H126.496V47.8535C126.496 45.9055 126.444 43.908 126.345 41.8592H129.91L130.136 44.7499H130.212C131.562 42.5719 133.613 41.4829 136.368 41.4829C138.518 41.4829 140.314 42.3324 141.755 44.0334C143.189 45.7382 143.911 47.9771 143.911 50.7538ZM139.78 50.902C139.78 49.1269 139.379 47.6635 138.577 46.5098C137.7 45.3106 136.528 44.71 135.052 44.71C134.052 44.71 133.144 45.0445 132.328 45.704C131.514 46.3692 130.984 47.2378 130.735 48.3135C130.611 48.8152 130.545 49.2238 130.545 49.5469V52.5897C130.545 53.9144 130.954 55.0338 131.763 55.9499C132.577 56.8603 133.634 57.3202 134.938 57.3202C136.467 57.3202 137.655 56.7291 138.503 55.5565C139.354 54.38 139.78 52.8292 139.78 50.902ZM167.37 53.0021C167.37 55.1555 166.617 56.9059 165.121 58.2572C163.475 59.732 161.177 60.4713 158.23 60.4713C155.508 60.4713 153.325 59.9467 151.679 58.8957L152.616 55.5185C154.394 56.5714 156.346 57.0959 158.471 57.0959C160 57.0959 161.188 56.75 162.036 56.0639C162.886 55.3759 163.315 54.4561 163.315 53.3081C163.315 52.2799 162.96 51.419 162.262 50.7177C161.561 50.0183 160.401 49.3664 158.772 48.7677C154.342 47.1161 152.126 44.7005 152.126 41.5228C152.126 39.4474 152.909 37.7483 154.472 36.4198C156.034 35.0932 158.106 34.4299 160.684 34.4299C162.986 34.4299 164.905 34.8309 166.427 35.6311L165.41 38.9342C163.977 38.1588 162.359 37.7711 160.549 37.7711C159.12 37.7711 157.998 38.1227 157.196 38.8221C156.521 39.4474 156.179 40.2095 156.179 41.1142C156.179 42.112 156.568 42.9406 157.344 43.5906C158.017 44.1893 159.245 44.8412 161.021 45.5406C163.199 46.4186 164.8 47.4411 165.825 48.6157C166.857 49.7902 167.37 51.2555 167.37 53.0021ZM180.805 44.9001H176.338V53.7547C176.338 56.0069 177.125 57.1301 178.702 57.1301C179.427 57.1301 180.027 57.0693 180.503 56.942L180.615 60.019C179.816 60.3174 178.765 60.4675 177.463 60.4675C175.862 60.4675 174.611 59.9791 173.708 59.0022C172.809 58.0253 172.357 56.3889 172.357 54.0854V44.8925H169.695V41.8516H172.357V38.5123L176.338 37.3112V41.8516H180.805V44.9001ZM200.922 50.8279C200.922 53.6312 200.12 55.9328 198.519 57.7326C196.844 59.5856 194.616 60.5093 191.839 60.5093C189.158 60.5093 187.027 59.6218 185.438 57.8485C183.849 56.0715 183.054 53.8327 183.054 51.132C183.054 48.3059 183.875 45.991 185.512 44.1912C187.153 42.3894 189.362 41.4886 192.139 41.4886C194.816 41.4886 196.966 42.378 198.593 44.1532C200.148 45.8751 200.922 48.0987 200.922 50.8279ZM196.721 50.921C196.721 49.2504 196.359 47.8174 195.635 46.6182C194.785 45.17 193.569 44.4458 191.993 44.4458C190.369 44.4458 189.124 45.17 188.276 46.6182C187.55 47.8174 187.189 49.2751 187.189 50.997C187.189 52.6695 187.55 54.1064 188.276 55.3018C189.153 56.75 190.375 57.4741 191.959 57.4741C193.508 57.4741 194.723 56.7348 195.601 55.2657C196.346 54.0379 196.721 52.5954 196.721 50.921ZM214.102 45.4227C213.68 45.3466 213.253 45.3091 212.824 45.3106C211.399 45.3106 210.296 45.8465 209.52 46.9261C208.847 47.8763 208.509 49.0775 208.509 50.5276V60.0969H204.456V47.6027C204.46 45.6882 204.42 43.7738 204.338 41.8611H207.868L208.017 45.3505H208.129C208.559 44.1513 209.231 43.1839 210.155 42.4598C211.001 41.827 212.029 41.4844 213.085 41.4829C213.459 41.4829 213.798 41.5095 214.098 41.557L214.102 45.4227ZM232.229 50.1152C232.239 50.7312 232.189 51.3467 232.08 51.953H219.921C219.967 53.7547 220.556 55.1345 221.685 56.0848C222.71 56.9325 224.035 57.3582 225.662 57.3582C227.463 57.3582 229.105 57.0731 230.582 56.4972L231.217 59.3082C229.491 60.0608 227.453 60.4352 225.102 60.4352C222.273 60.4352 220.052 59.6028 218.436 57.9417C216.824 56.2787 216.016 54.0436 216.016 51.2441C216.016 48.4959 216.767 46.2058 218.271 44.3793C219.845 42.4294 221.972 41.4544 224.649 41.4544C227.278 41.4544 229.269 42.4294 230.62 44.3793C231.691 45.9245 232.229 47.8402 232.229 50.1152ZM228.364 49.0642C228.392 47.8611 228.126 46.8253 227.577 45.9492C226.875 44.8203 225.795 44.2577 224.349 44.2577C223.024 44.2577 221.944 44.8069 221.123 45.9093C220.448 46.7854 220.047 47.8383 219.923 49.0604L228.364 49.0642Z" fill="white"/>
<path d="M85.9487 25.8619C84.8214 25.8619 83.8462 25.8068 83.0344 25.7137V13.4855C84.1698 13.3102 85.317 13.2238 86.4658 13.2271C91.1139 13.2271 93.2545 15.5134 93.2545 19.2404C93.2545 23.5395 90.7261 25.8619 85.9487 25.8619ZM86.6293 14.795C86.002 14.795 85.4678 14.833 85.0248 14.9243V24.2199C85.2644 24.2579 85.7244 24.275 86.3708 24.275C89.4163 24.275 91.15 22.5417 91.15 19.2955C91.15 16.401 89.5817 14.795 86.6293 14.795ZM99.9253 25.9551C97.3056 25.9551 95.608 23.9994 95.608 21.3443C95.608 18.5771 97.3418 16.6043 100.074 16.6043C102.655 16.6043 104.391 18.4669 104.391 21.198C104.391 23.9994 102.602 25.9551 99.9253 25.9551ZM100.001 18.0602C98.5622 18.0602 97.6402 19.4058 97.6402 21.2873C97.6402 23.1327 98.5813 24.4783 99.9823 24.4783C101.383 24.4783 102.324 23.0396 102.324 21.2493C102.324 19.4248 101.402 18.0602 100.001 18.0602ZM119.329 16.7887L116.525 25.7517H114.698L113.537 21.8594C113.248 20.9073 113.008 19.9412 112.816 18.9648H112.778C112.632 19.9417 112.354 20.9205 112.06 21.8594L110.824 25.7517H108.978L106.339 16.7887H108.387L109.402 21.0497C109.642 22.0646 109.843 23.0225 110.01 23.9272H110.048C110.195 23.1727 110.434 22.23 110.786 21.0687L112.06 16.7906H113.683L114.902 20.9775C115.196 21.9924 115.436 22.9883 115.622 23.9291H115.676C115.805 23.0073 116.008 22.0285 116.284 20.9775L117.373 16.7906L119.329 16.7887ZM129.652 25.7517H127.66V20.605C127.66 19.0199 127.051 18.2255 125.852 18.2255C124.671 18.2255 123.86 19.2404 123.86 20.4207V25.7517H121.867V19.3506C121.867 18.5581 121.848 17.7086 121.793 16.7868H123.546L123.639 18.1704H123.694C124.23 17.2125 125.318 16.6043 126.536 16.6043C128.418 16.6043 129.654 18.0431 129.654 20.3845L129.652 25.7517ZM135.146 25.7517H133.152V12.6759H135.146V25.7517ZM142.41 25.9551C139.792 25.9551 138.093 23.9994 138.093 21.3443C138.093 18.5771 139.827 16.6043 142.556 16.6043C145.14 16.6043 146.874 18.4669 146.874 21.198C146.876 23.9994 145.085 25.9551 142.41 25.9551ZM142.484 18.0602C141.045 18.0602 140.123 19.4058 140.123 21.2873C140.123 23.1327 141.066 24.4783 142.463 24.4783C143.866 24.4783 144.805 23.0396 144.805 21.2493C144.807 19.4248 143.887 18.0602 142.484 18.0602ZM154.729 25.7517L154.584 24.7197H154.531C153.923 25.5502 153.035 25.9551 151.91 25.9551C150.303 25.9551 149.163 24.8299 149.163 23.3171C149.163 21.1049 151.081 19.9607 154.402 19.9607V19.7954C154.402 18.6151 153.777 18.0241 152.541 18.0241C151.657 18.0241 150.881 18.2464 150.199 18.6893L149.794 17.3798C150.623 16.8628 151.657 16.6043 152.872 16.6043C155.214 16.6043 156.396 17.8397 156.396 20.3123V23.6136C156.396 24.5182 156.436 25.2196 156.525 25.7536L154.729 25.7517ZM154.455 21.2873C152.242 21.2873 151.132 21.8233 151.132 23.0947C151.132 24.0355 151.704 24.4954 152.499 24.4954C153.512 24.4954 154.455 23.7219 154.455 22.6709V21.2873ZM166.071 25.7517L165.977 24.313H165.922C165.35 25.4001 164.388 25.9551 163.044 25.9551C160.883 25.9551 159.282 24.0545 159.282 21.3804C159.282 18.5771 160.942 16.6024 163.208 16.6024C164.407 16.6024 165.257 17.0073 165.736 17.8207H165.776V12.6759H167.77V23.3361C167.77 24.2028 167.791 25.0143 167.844 25.7517H166.071ZM165.776 20.4777C165.776 19.2233 164.945 18.1533 163.677 18.1533C162.2 18.1533 161.297 19.4628 161.297 21.3063C161.297 23.1137 162.234 24.351 163.637 24.351C164.89 24.351 165.776 23.262 165.776 21.9715V20.4777ZM180.414 25.9551C177.796 25.9551 176.099 23.9994 176.099 21.3443C176.099 18.5771 177.832 16.6043 180.562 16.6043C183.146 16.6043 184.88 18.4669 184.88 21.198C184.882 23.9994 183.093 25.9551 180.414 25.9551ZM180.488 18.0602C179.051 18.0602 178.129 19.4058 178.129 21.2873C178.129 23.1327 179.07 24.4783 180.469 24.4783C181.872 24.4783 182.811 23.0396 182.811 21.2493C182.815 19.4248 181.893 18.0602 180.488 18.0602ZM195.594 25.7517H193.6V20.605C193.6 19.0199 192.991 18.2255 191.792 18.2255C190.611 18.2255 189.802 19.2404 189.802 20.4207V25.7517H187.807V19.3506C187.807 18.5581 187.788 17.7086 187.733 16.7868H189.486L189.579 18.1704H189.634C190.168 17.2125 191.258 16.6024 192.474 16.6024C194.356 16.6024 195.594 18.0412 195.594 20.3826V25.7517ZM208.998 18.2825H206.806V22.6348C206.806 23.7428 207.19 24.2959 207.966 24.2959C208.318 24.2959 208.612 24.2579 208.85 24.2028L208.905 25.7156C208.519 25.8638 208.002 25.938 207.36 25.938C205.789 25.938 204.85 25.0713 204.85 22.802V18.2825H203.542V16.7887H204.85V15.1466L206.806 14.5555V16.7868H208.998V18.2825ZM219.545 25.7517H217.555V20.643C217.555 19.039 216.949 18.2274 215.747 18.2274C214.715 18.2274 213.753 18.9287 213.753 20.3484V25.7517H211.763V12.6759H213.753V18.0602H213.793C214.42 17.0833 215.329 16.6024 216.489 16.6024C218.386 16.6024 219.545 18.0773 219.545 20.4207V25.7517ZM230.351 21.7491H224.372C224.41 23.4463 225.534 24.4042 227.197 24.4042C228.081 24.4042 228.895 24.256 229.613 23.9804L229.923 25.364C229.075 25.7327 228.077 25.9171 226.916 25.9171C224.112 25.9171 222.452 24.1457 222.452 21.3994C222.452 18.6512 224.152 16.5853 226.692 16.5853C228.982 16.5853 230.419 18.2825 230.419 20.8464C230.432 21.1489 230.409 21.452 230.351 21.7491ZM228.524 20.3294C228.524 18.9458 227.826 17.9689 226.553 17.9689C225.408 17.9689 224.503 18.9648 224.374 20.3294H228.524Z" fill="white"/>
<defs>
<linearGradient id="paint0_linear_375_1548" x1="188.124" y1="76.4244" x2="188.124" y2="-197.673" gradientUnits="userSpaceOnUse">
<stop stop-color="#1A1A1A" stop-opacity="0.1"/>
<stop offset="0.123" stop-color="#212121" stop-opacity="0.151"/>
<stop offset="0.308" stop-color="#353535" stop-opacity="0.227"/>
<stop offset="0.532" stop-color="#575757" stop-opacity="0.318"/>
<stop offset="0.783" stop-color="#858585" stop-opacity="0.421"/>
<stop offset="1" stop-color="#B3B3B3" stop-opacity="0.51"/>
</linearGradient>
</defs>
</svg>
