<svg width="664" height="415" viewBox="0 0 664 415" fill="none" xmlns="http://www.w3.org/2000/svg">
<g clip-path="url(#clip0_120_745)">
<path d="M664 351.516H0V526.686H664V351.516Z" fill="white"/>
<path d="M352.128 264.159C352.128 264.159 343.074 273.495 333.889 283.808C330.046 288.126 326.203 292.607 322.994 296.647C312.067 310.366 301.824 314.228 289.708 327.686C282.299 335.93 272.495 342.268 254.191 345.201C235.887 348.133 169.151 352.891 169.151 352.891C169.151 352.891 167.523 344.027 168.646 341.225C168.956 340.476 168.174 338.732 167.099 336.565C164.184 330.683 159.201 321.706 168.646 320.614C181.56 319.132 244.208 303.963 247.205 299.433C250.201 294.904 267.154 273.919 276.273 254.774C285.393 235.63 299.072 212.412 313.044 189.602C325.323 169.611 328.776 168.535 335.387 162.784L343.106 209.382L352.128 264.159Z" fill="#F06F70"/>
<path d="M138.666 351.05H94.2407V349.144C94.245 343.242 96.59 337.584 100.761 333.411C104.932 329.238 110.587 326.892 116.486 326.887C122.387 326.887 128.047 329.232 132.221 333.405C136.396 337.578 138.743 343.239 138.747 349.144L138.666 351.05Z" fill="#A5A5A5"/>
<path d="M140.229 325.616C136.598 324.248 125.736 319.099 119.873 319.099C114.011 319.099 104.207 329.087 98.7027 333.991C93.1984 338.895 100.836 343.408 105.217 341.176C109.597 338.944 113.978 333.225 118.245 333.388C122.511 333.551 124.368 337.315 126.713 338.097C127.902 338.488 128.537 341.632 126.322 343.197C124.107 344.761 119.075 344.826 117.707 345.641C114.971 347.4 116.73 352.158 121.436 352.158C126.143 352.158 130.116 352.647 135.718 351.587C141.32 350.528 148.209 352.044 152.541 350.284C156.872 348.524 169.151 352.907 169.151 352.907L160.422 328.94C160.422 328.94 147.199 328.24 140.229 325.616Z" fill="#FDD2BB"/>
<path d="M143.356 325.616C144.268 329.185 146.613 331.628 148.453 337.103C152.557 349.062 147.346 351.327 147.346 351.327C147.346 351.327 170.145 352.956 174.151 351.327C174.151 351.327 179.687 345.184 174.151 332.899L168.614 320.614C164.083 320.846 159.57 321.341 155.097 322.097C146.825 323.352 143.356 325.616 143.356 325.616Z" fill="#C63E3F"/>
<path d="M461.986 82.3776C461.986 82.3776 457.41 95.7867 456.986 107.339C456.563 118.89 456.563 134.841 459.934 141C463.305 147.159 499.018 168.014 499.018 168.014C499.018 168.014 458.485 176.421 418.359 174.042C378.233 171.663 369.651 154.572 369.651 154.572C369.651 154.572 400.12 142.613 400.934 139.582C401.748 136.552 407.676 113.514 407.676 113.514L461.986 82.3776Z" fill="#F6C1AA"/>
<path opacity="0.28" d="M459.022 139.012C456.498 131.876 456.531 117.831 456.921 107.339C457.345 95.7867 461.921 82.3776 461.921 82.3776L407.643 113.465C407.643 113.465 401.732 136.552 400.901 139.534C400.071 142.515 369.618 154.523 369.618 154.523C369.933 155.094 370.292 155.638 370.693 156.152C400.397 151.118 429.709 145.203 459.022 139.012Z" fill="#EB9271"/>
<path d="M391.244 79.6404C392.482 69.9623 392.873 35.0626 392.873 35.0626L439.48 18.6718L480.274 41.4821C480.274 41.4821 470.503 72.4388 470.324 82.2147C470.145 91.9905 469.51 105.025 463.403 114.393C457.296 123.762 441.434 138.1 437.689 139.827C426.452 144.992 419.092 141.456 410.64 136.568C407.073 134.483 402.172 123.941 397.465 113.758C392.759 103.575 389.99 89.3347 391.244 79.6404Z" fill="#FDD2BB"/>
<path d="M464.575 55.4289C464.575 55.4289 464.673 67.9419 467.995 76.1536C468.647 77.7829 468.239 82.6708 467.441 88.5526C469.07 86.6789 470.812 84.8215 472.555 82.9967C475.926 79.4611 479.069 75.7951 482.033 72.0152C483.775 64.9114 486.918 55.2497 486.755 49.7426C486.43 33.0097 486.446 23.6737 455.814 8.65156C449.984 5.81657 438.129 -1.85747 432.054 0.407264C423.016 3.79622 420.313 7.10372 413.18 13.181C413.18 13.181 403.556 11.2421 391.586 24.1951C384.519 31.8528 386.701 42.8995 387.092 51.2253C387.939 68.1537 392.417 67.2413 392.417 67.2413C393.117 58.6223 391.652 55.0378 394.208 42.036C395.071 37.6369 401.602 36.1868 406.047 35.2418C410.493 34.2968 411.796 32.6838 425.964 46.7447C434.302 55.0704 438.894 54.3698 464.575 55.4289Z" fill="#5C3000"/>
<path d="M465.666 81.7748C467.914 73.3187 471.545 67.0296 475.356 67.3391C479.167 67.6487 483.042 74.6873 478.303 82.6709C475.193 88.2302 471.739 93.5902 467.963 98.7195C465.422 101.913 464.201 87.2493 465.666 81.7748Z" fill="#FDD2BB"/>
<path d="M468.044 82.8175C469.396 78.2229 471.399 72.5203 474.802 72.9276C478.206 73.335 478.743 77.0335 474.053 83.453C471.671 86.4139 469.734 89.7074 468.305 93.2288C468.305 93.2288 467.295 85.3103 468.044 82.8175Z" fill="#EB9271"/>
<path d="M427.055 253.992C421.941 283.645 419.662 356.492 407.204 351.017C400.364 347.987 379.112 348.101 361.329 348.785C346.673 349.372 334.41 350.414 334.41 350.414C334.41 350.414 333.563 317.502 333.889 283.874C334.036 267.825 334.459 251.597 335.355 238.742C335.664 234.506 335.86 230.449 335.974 226.571C337.113 188.999 330.86 167.167 335.355 162.849C340.322 158.059 397.074 143.721 399.827 136.992L404.012 157.097C414.418 173.667 427.918 168.698 427.918 168.698C427.918 168.698 432.136 224.371 427.055 253.992Z" fill="#F06F70"/>
<path d="M413.701 174.042C410.949 190.482 410.2 203.37 405.559 234.897C400.918 266.424 403.051 279.507 400.999 299.368C398.947 319.229 394.99 348.671 394.99 348.671L429.025 353.657C429.025 353.657 430.182 296.631 431.957 256.469C433.188 231.07 435.995 205.773 440.36 180.722L444.919 156.283C444.919 156.283 432.331 169.676 419.336 168.291C406.341 166.906 413.701 174.042 413.701 174.042Z" fill="#C63E3F"/>
<path d="M515.449 197.683C514.195 209.871 519.879 225.056 517.241 242.082C515.466 253.487 513.137 267.304 510.727 281.267C507.307 300.932 509.196 350.854 509.196 350.854C509.196 350.854 431.452 348.166 418.326 351.816C405.201 355.465 413.441 283.026 412.594 252.966C411.747 222.905 423.993 168.356 423.993 168.356C423.993 168.356 434.106 168.356 449.593 156.332C455.201 152.104 459.162 146.055 460.797 139.224C462.556 146.279 515.449 162.246 519.683 167.688C520.546 169.062 521.05 170.63 521.149 172.25C521.882 177.513 516.622 186.295 515.449 197.683Z" fill="#F06F70"/>
<path d="M423.961 168.356C428.667 167.052 444.463 158.287 450.31 150.434C453.91 145.453 456.464 139.794 457.817 133.798C457.817 133.798 463.387 142.792 463.973 148.462C464.559 154.132 451.336 181.863 448.812 189.586C448.812 189.586 444.577 188.787 436.826 182.042C432.092 177.921 427.782 173.336 423.961 168.356Z" fill="#C63E3F"/>
<path d="M401.911 135.982C401.911 135.982 399.305 139.876 405.168 149.538C411.031 159.199 423.928 168.372 423.928 168.372L403.018 188.641C400.027 181.29 397.412 173.791 395.185 166.173C392.303 155.745 392.661 144.682 394.208 141.489C395.755 138.295 401.911 135.982 401.911 135.982Z" fill="#C63E3F"/>
<path d="M430.23 213.113C430.15 214.192 429.752 215.223 429.087 216.076C428.421 216.93 427.518 217.566 426.491 217.906C425.464 218.245 424.359 218.273 423.317 217.985C422.274 217.696 421.34 217.106 420.633 216.287C419.926 215.468 419.477 214.457 419.344 213.384C419.21 212.31 419.398 211.22 419.883 210.253C420.368 209.286 421.129 208.484 422.069 207.949C423.009 207.414 424.087 207.17 425.166 207.247C425.884 207.299 426.584 207.492 427.227 207.815C427.871 208.138 428.444 208.584 428.914 209.129C429.385 209.674 429.743 210.306 429.969 210.99C430.195 211.673 430.284 212.395 430.23 213.113Z" fill="#C63E3F"/>
<path d="M426.013 271.719C425.933 272.798 425.535 273.83 424.869 274.683C424.203 275.536 423.3 276.172 422.273 276.512C421.246 276.851 420.141 276.879 419.099 276.591C418.056 276.303 417.122 275.712 416.415 274.893C415.708 274.074 415.26 273.064 415.126 271.99C414.993 270.916 415.18 269.826 415.665 268.859C416.15 267.892 416.911 267.09 417.851 266.555C418.792 266.02 419.869 265.776 420.948 265.853C421.666 265.905 422.366 266.098 423.01 266.421C423.653 266.744 424.226 267.19 424.697 267.735C425.167 268.28 425.525 268.912 425.751 269.596C425.977 270.28 426.066 271.001 426.013 271.719Z" fill="#C63E3F"/>
<path d="M421.795 330.309C421.715 331.388 421.317 332.419 420.651 333.272C419.986 334.125 419.082 334.762 418.055 335.102C417.028 335.441 415.924 335.469 414.881 335.18C413.839 334.892 412.905 334.301 412.198 333.482C411.49 332.664 411.042 331.653 410.908 330.579C410.775 329.505 410.962 328.416 411.447 327.449C411.933 326.481 412.693 325.68 413.634 325.145C414.574 324.61 415.651 324.366 416.73 324.443C417.449 324.493 418.151 324.684 418.795 325.006C419.439 325.328 420.013 325.775 420.484 326.32C420.955 326.866 421.313 327.499 421.538 328.183C421.763 328.868 421.85 329.59 421.795 330.309Z" fill="#C63E3F"/>
<path d="M453.306 234.832C466.871 235.972 481.707 237.536 487.325 236.998V245.585C487.325 245.585 473.727 244.119 461.986 244.119H445.001L446.483 234.832C446.483 234.832 446.287 234.229 453.306 234.832Z" fill="#C63E3F"/>
<path d="M347.015 342.268H272.495V350.985H347.015V342.268Z" fill="#E9EBEE"/>
<path d="M443.047 342.268H346.998V350.985H443.047V342.268Z" fill="#E9EBEE"/>
<path d="M352.128 338.635V342.268H356.786H365.531V338.635H356.786H352.128Z" fill="#D5D5D7"/>
<path d="M335.355 338.635V342.268H340.029H348.773V338.635H340.029H335.355Z" fill="#D5D5D7"/>
<path d="M318.581 338.635V342.268H323.255H332V338.635H323.255H318.581Z" fill="#D5D5D7"/>
<path d="M301.824 338.635V342.268H306.482H315.227V338.635H306.482H301.824Z" fill="#D5D5D7"/>
<path d="M424.922 338.635H420.248V342.268H424.922H433.667V338.635H424.922Z" fill="#D5D5D7"/>
<path d="M403.474 338.635V342.268H408.148H416.893V338.635H408.148H403.474Z" fill="#D5D5D7"/>
<path d="M386.717 338.635V342.268H391.375H400.12V338.635H391.375H386.717Z" fill="#D5D5D7"/>
<path d="M369.944 338.635V342.268H374.601H383.346V338.635H374.601H369.944Z" fill="#D5D5D7"/>
<path d="M285.051 338.635V342.268H289.708H298.453V338.635H289.708H285.051Z" fill="#D5D5D7"/>
<path d="M296.662 106.654H33.4003C32.4062 106.634 31.4195 106.829 30.5076 107.226C29.5957 107.622 28.7802 108.211 28.1169 108.952C27.4535 109.693 26.9579 110.569 26.6641 111.519C26.3702 112.47 26.2849 113.472 26.4141 114.459L44.8649 292.9C45.1175 295.031 46.1354 296.997 47.7292 298.433C49.323 299.868 51.384 300.676 53.5284 300.704H316.709C317.704 300.727 318.693 300.534 319.606 300.138C320.52 299.743 321.338 299.154 322.003 298.413C322.668 297.671 323.165 296.795 323.46 295.843C323.755 294.892 323.84 293.888 323.711 292.9L305.26 114.524C305.021 112.393 304.017 110.422 302.436 108.975C300.855 107.528 298.804 106.704 296.662 106.654Z" fill="#FAFCFF"/>
<path d="M296.662 106.654H33.4003C32.4062 106.634 31.4195 106.829 30.5076 107.226C29.5957 107.622 28.7802 108.211 28.1169 108.952C27.4535 109.693 26.9579 110.569 26.6641 111.519C26.3702 112.47 26.2849 113.472 26.4141 114.459L44.8649 292.9C45.1175 295.031 46.1354 296.997 47.7292 298.433C49.323 299.868 51.384 300.676 53.5284 300.704H316.709C317.704 300.727 318.693 300.534 319.606 300.138C320.52 299.743 321.338 299.154 322.003 298.413C322.668 297.671 323.165 296.795 323.46 295.843C323.755 294.892 323.84 293.888 323.711 292.9L305.26 114.524C305.021 112.393 304.017 110.422 302.436 108.975C300.855 107.528 298.804 106.704 296.662 106.654Z" fill="#6B6B6B"/>
<path d="M291.776 106.654H28.5311C27.533 106.636 26.5425 106.832 25.6258 107.228C24.7091 107.623 23.8874 108.21 23.2154 108.948C22.5434 109.687 22.0366 110.561 21.7289 111.511C21.4211 112.461 21.3196 113.466 21.4309 114.459L37.2435 292.9C37.4584 295.014 38.4406 296.976 40.0042 298.414C41.5678 299.853 43.6043 300.667 45.728 300.704H309.022C310.021 300.725 311.013 300.531 311.931 300.136C312.849 299.742 313.671 299.155 314.344 298.416C315.017 297.677 315.523 296.802 315.83 295.85C316.137 294.899 316.236 293.893 316.122 292.9L300.277 114.524C300.07 112.398 299.09 110.422 297.523 108.971C295.956 107.521 293.911 106.696 291.776 106.654Z" fill="#D5D5D7"/>
<g style="mix-blend-mode:multiply">
<path d="M247.514 286.317C246.676 286.302 245.872 285.98 245.254 285.413C244.636 284.846 244.247 284.072 244.159 283.238L242.857 268.574C242.814 268.181 242.857 267.783 242.981 267.408C243.106 267.033 243.309 266.688 243.577 266.398C243.846 266.108 244.173 265.879 244.538 265.725C244.902 265.572 245.295 265.499 245.69 265.511C246.53 265.523 247.335 265.843 247.954 266.411C248.573 266.979 248.961 267.754 249.045 268.59L250.348 283.254C250.387 283.647 250.342 284.043 250.217 284.417C250.092 284.791 249.888 285.134 249.62 285.424C249.353 285.714 249.026 285.943 248.663 286.097C248.3 286.251 247.908 286.326 247.514 286.317Z" fill="#E9EBEE"/>
<path d="M257.269 286.318C256.43 286.302 255.626 285.981 255.008 285.413C254.39 284.846 254.001 284.073 253.914 283.238L252.611 268.574C252.569 268.18 252.612 267.781 252.737 267.404C252.863 267.028 253.067 266.683 253.337 266.392C253.608 266.102 253.937 265.873 254.304 265.721C254.67 265.569 255.065 265.497 255.461 265.511C256.3 265.523 257.106 265.844 257.725 266.411C258.344 266.979 258.732 267.755 258.816 268.591L260.118 283.254C260.161 283.649 260.118 284.048 259.992 284.425C259.867 284.801 259.662 285.146 259.392 285.437C259.122 285.727 258.792 285.956 258.426 286.108C258.06 286.26 257.665 286.331 257.269 286.318Z" fill="#E9EBEE"/>
<path d="M267.023 286.317C266.185 286.302 265.381 285.981 264.763 285.413C264.145 284.846 263.756 284.073 263.669 283.238L262.366 268.574C262.323 268.178 262.367 267.778 262.493 267.4C262.619 267.023 262.825 266.677 263.097 266.386C263.369 266.095 263.701 265.866 264.069 265.716C264.438 265.565 264.834 265.495 265.232 265.511C266.072 265.526 266.878 265.847 267.499 266.414C268.119 266.981 268.512 267.755 268.603 268.591L269.889 283.254C269.935 283.651 269.893 284.053 269.768 284.432C269.643 284.81 269.437 285.158 269.164 285.449C268.892 285.74 268.559 285.969 268.189 286.119C267.82 286.269 267.422 286.337 267.023 286.317Z" fill="#E9EBEE"/>
<path d="M276.778 286.318C275.941 286.299 275.139 285.976 274.521 285.41C273.904 284.843 273.514 284.071 273.423 283.238L272.12 268.574C272.078 268.177 272.121 267.775 272.249 267.396C272.376 267.017 272.583 266.67 272.857 266.379C273.131 266.088 273.465 265.86 273.835 265.71C274.205 265.56 274.604 265.493 275.003 265.511C275.841 265.527 276.645 265.848 277.263 266.415C277.881 266.983 278.27 267.756 278.358 268.591L279.66 283.254C279.7 283.651 279.655 284.052 279.526 284.43C279.398 284.807 279.19 285.153 278.917 285.444C278.644 285.734 278.311 285.962 277.942 286.113C277.573 286.264 277.176 286.334 276.778 286.318Z" fill="#E9EBEE"/>
<path d="M286.549 286.318C285.709 286.303 284.903 285.982 284.282 285.415C283.662 284.848 283.269 284.074 283.178 283.238L281.891 268.574C281.846 268.176 281.888 267.773 282.014 267.393C282.14 267.013 282.347 266.665 282.622 266.373C282.896 266.082 283.231 265.853 283.603 265.705C283.974 265.556 284.374 265.49 284.774 265.511C285.612 265.527 286.416 265.848 287.034 266.415C287.652 266.983 288.041 267.756 288.128 268.591L289.431 283.254C289.471 283.651 289.426 284.052 289.297 284.43C289.169 284.807 288.961 285.153 288.688 285.443C288.415 285.734 288.082 285.962 287.713 286.113C287.344 286.264 286.947 286.334 286.549 286.318Z" fill="#E9EBEE"/>
</g>
<path d="M230.106 344.695H193.416V351.587L230.106 352.728V344.695Z" fill="#6B6B6B"/>
<path d="M179.801 313.739L189.165 203.712H148.762L131.256 312.631C128.879 325.225 132.771 338.569 140.587 344.63L149.577 351.587H199.311L198.464 344.696C192.238 342.515 186.968 338.23 183.561 332.579C180.154 326.928 178.825 320.265 179.801 313.739Z" fill="#6B6B6B"/>
<path d="M173.906 313.739L183.27 203.712H142.851L125.345 312.631C122.967 325.225 126.859 338.569 134.692 344.63L143.665 351.587H193.416L183.547 343.946C176.121 338.195 172.196 325.861 173.906 313.739Z" fill="#A5A5A5"/>
<path d="M174.753 329.315H125.736C126.924 335.279 130.078 340.672 134.692 344.63L143.665 351.587H193.416L183.547 343.946C179.106 340.153 176.02 335.017 174.753 329.315Z" fill="#6B6B6B"/>
<path d="M583.764 327.018C583.764 327.018 568.538 318.659 556.422 313.152C544.306 307.645 526.474 317.551 526.474 317.551C526.474 317.551 524.292 311.898 521.247 304.598C518.201 297.299 514.179 287.979 510.727 281.267C509.336 278.281 507.598 275.47 505.548 272.892C499.409 266.375 499.962 258.701 498.252 254.97C498.252 254.823 498.138 254.66 498.09 254.465C496.819 249.577 500.19 229.667 504.017 211.63C508.007 192.91 513.072 163.778 513.072 163.778C514.944 165.325 521.019 166.824 524.373 170.718C524.373 170.718 546.456 204.298 555.787 227.451C572.756 269.471 575.492 278.187 578.341 293.666C581.191 309.144 583.764 327.018 583.764 327.018Z" fill="#F06F70"/>
<path d="M394.094 335.604C407.122 332.981 416.779 339.368 424.889 339.873C432.999 340.378 462.116 337.25 462.116 337.25L455.602 322.309C455.602 322.309 422.43 321.673 411.161 325.437C404.754 327.44 398.907 330.923 394.094 335.604Z" fill="#FDD2BB"/>
<path d="M462.279 320.191C462.279 320.191 444.985 317.16 436.663 316.932C422.642 316.525 406.845 316.59 403.637 319.262C400.429 321.934 383.623 340.916 381.376 344.044C379.129 347.172 380.203 350.724 387.19 348.247C394.176 345.771 405.787 332.427 412.806 329.299C419.824 326.17 432.885 328.875 432.885 328.875L458.762 326.382L462.279 320.191Z" fill="#FDD2BB"/>
<path opacity="0.28" d="M441.956 317.291C421.241 322.293 401.146 329.266 383.704 341.095C382.565 342.447 381.718 343.474 381.327 344.028C379.08 347.156 380.154 350.708 387.141 348.231C394.127 345.755 405.738 332.411 412.757 329.282C419.776 326.154 432.836 328.859 432.836 328.859L458.713 326.366L462.23 320.191C462.23 320.191 450.717 318.17 441.956 317.291Z" fill="#EB9271"/>
<path d="M445.001 320.745C445.001 320.745 420.948 319.115 414.629 318.399C408.311 317.682 403.425 323.01 399.973 329.201C396.521 335.392 389.29 346.113 390.837 349.29C392.384 352.467 396.309 352.207 399.68 348.671C403.051 345.135 407.513 336.06 412.268 334.333C417.023 332.606 432.901 328.859 432.901 328.859L445.001 320.745Z" fill="#FDD2BB"/>
<path opacity="0.28" d="M415.053 324.753C405.103 328.924 396.325 352.207 399.696 348.671C403.067 345.135 407.529 336.06 412.284 334.333C417.04 332.606 432.917 328.859 432.917 328.859L445.082 320.712L432.266 319.8C426.352 320.761 420.574 322.424 415.053 324.753Z" fill="#EB9271"/>
<path d="M487.309 342.268C487.309 342.268 474.933 341.388 470.617 345.657C466.302 349.926 461.823 351.881 457.671 351.343C453.518 350.805 445.994 347.058 442.542 344.989C439.089 342.92 428.065 349.975 424.629 351.685C421.192 353.396 417.935 350.366 419.645 346.602C421.487 342.916 424.369 339.851 427.934 337.787C430.8 336.256 443.438 333.16 443.438 333.16H443.21H443.063C439.457 332.688 435.82 332.497 432.185 332.59C427.918 332.883 423.489 335.506 419.564 340.736C415.639 345.966 411.421 351.864 409.207 352.826C408.835 352.967 408.428 352.987 408.044 352.881C407.661 352.776 407.321 352.551 407.073 352.239C405.689 350.838 404.94 347.465 406.894 343.278C409.744 337.152 417.3 327.376 421.241 322.488C425.182 317.6 431.094 317.177 436.679 316.981C442.265 316.786 455.293 316.834 455.293 316.834C455.293 316.834 469.689 316.492 477.571 316.59C482.244 316.59 487.309 342.268 487.309 342.268Z" fill="#FDD2BB"/>
<path opacity="0.28" d="M477.506 316.525H471.61C471.755 326.601 471.063 336.672 469.542 346.634C469.9 346.325 470.259 346.015 470.617 345.657C474.932 341.388 487.325 342.268 487.325 342.268C487.325 342.268 482.244 316.59 477.506 316.525Z" fill="#EB9271"/>
<path opacity="0.28" d="M443.372 333.127H443.144H442.998C439.392 332.655 435.755 332.464 432.119 332.557C427.853 332.85 423.423 335.474 419.499 340.704C415.574 345.934 411.356 351.832 409.141 352.793C408.77 352.935 408.363 352.954 407.979 352.849C407.595 352.743 407.255 352.518 407.008 352.207C410.968 346.86 414.564 341.254 417.773 335.425C421.029 329.901 430.556 328.908 432.836 328.908C435.116 328.908 443.372 333.127 443.372 333.127Z" fill="#EB9271"/>
<path d="M536.652 294.48C527.824 300.936 517.991 305.891 507.551 309.144C497.701 312.25 487.666 314.737 477.505 316.59C477.505 316.59 478.873 331.905 479.346 347.889C479.346 347.889 520.058 354.406 546.586 349.16C573.114 343.913 579.758 344.842 584.22 333.323C588.682 321.804 581.322 299.108 577.902 289.153C574.482 279.197 553.198 286.888 536.652 294.48Z" fill="#F06F70"/>
<path d="M472.75 316.427C477.115 322.26 477.033 331.091 478.092 343.262C478.825 351.783 475.958 351.539 475.958 351.539L498.236 350.854C498.236 350.854 500.744 337.966 497.226 326.089L493.693 314.228L472.75 316.427Z" fill="#C63E3F"/>
</g>
<defs>
<clipPath id="clip0_120_745">
<rect width="664" height="415" fill="white"/>
</clipPath>
</defs>
</svg>
