<svg width="347" height="252" viewBox="0 0 347 252" fill="none" xmlns="http://www.w3.org/2000/svg">
<g filter="url(#filter0_d_3_600)">
<path d="M121.038 124.664C121.038 124.352 121.292 124.099 121.604 124.098C122.825 124.094 124.004 124.082 125.182 124.12C125.433 124.128 125.725 124.358 125.914 124.561C127.326 126.069 128.721 127.592 130.071 129.06C130.256 129.261 130.559 129.3 130.789 129.152C132.431 128.099 133.994 126.985 135.684 126.106C143.544 122.018 151.607 121.683 159.779 125.162C162.532 126.334 164.734 128.259 166.664 130.49C166.872 130.73 167.235 130.753 167.469 130.538C168.775 129.336 169.997 128.089 171.39 127.064C175.93 123.724 181.186 122.645 186.74 122.832C200.029 123.282 211.004 132.784 213.174 145.686C213.408 147.08 213.523 148.509 213.525 149.922C213.55 164.748 213.54 179.574 213.54 194.401V194.888C213.54 195.201 213.287 195.455 212.974 195.455H195.602C195.29 195.455 195.036 195.201 195.036 194.888V194.483C195.036 179.929 195.024 165.376 195.043 150.823C195.049 146.936 193.516 143.91 189.973 142.079C183.834 138.906 176.594 143.311 176.588 150.189C176.576 164.906 176.585 179.623 176.585 194.34V194.929C176.585 195.242 176.331 195.496 176.018 195.496H158.564C158.251 195.496 157.996 195.242 157.996 194.929V194.447C157.996 179.866 157.986 165.286 158.004 150.705C158.009 146.872 156.456 143.913 152.992 142.1C146.898 138.911 139.586 143.265 139.577 150.062C139.56 164.834 139.572 179.605 139.572 194.377V194.909C139.572 195.222 139.318 195.476 139.005 195.476H121.604C121.291 195.476 121.038 195.222 121.038 194.909V124.664Z" fill="#F06F70"/>
</g>
<g filter="url(#filter1_d_3_600)">
<path d="M96.7031 187.831C96.4801 187.534 96.0559 187.477 95.7616 187.703C94.292 188.83 92.8682 189.97 91.3714 191.008C87.3734 193.78 83.0108 195.806 78.1425 196.53C71.8965 197.458 65.874 196.468 60.186 193.845C50.5157 189.385 44.8061 181.794 42.6513 171.634C42.0667 168.879 41.8424 166.006 41.8235 163.185C41.7381 150.517 41.7862 137.848 41.7862 125.179V124.824C41.7862 124.455 42.0858 124.155 42.4552 124.155H59.6494C60.0189 124.155 60.3183 124.455 60.3183 124.824V125.159C60.3183 137.991 60.3058 150.823 60.326 163.656C60.332 167.468 61.3407 170.981 63.8123 174.013C67.9202 179.053 77.7862 181.572 84.4757 173.635C87.0738 170.552 88.3222 166.991 88.319 162.988C88.3091 150.401 88.3154 137.815 88.3154 125.228V124.812C88.3154 124.442 88.6151 124.142 88.9851 124.142H106.167C106.536 124.142 106.836 124.441 106.836 124.811V194.859C106.836 195.227 106.537 195.526 106.168 195.527C104.973 195.532 103.784 195.543 102.598 195.501C102.371 195.493 102.109 195.184 101.942 194.958C100.209 192.618 98.4921 190.267 96.7696 187.92C96.7476 187.89 96.7254 187.86 96.7031 187.831Z" fill="#F06F70"/>
</g>
<g filter="url(#filter2_d_3_600)">
<path d="M161.823 28.4089C156.246 31.6398 152.158 36.9119 150.442 43.0891C148.496 49.1146 149.087 57.9334 148.774 64.2425L148.88 64.1959L148.734 64.1885C142.383 63.9742 133.615 62.4816 127.375 63.8288C121.025 64.9474 115.359 68.4951 111.595 73.7087C109.702 76.9506 108.662 80.6112 108.571 84.3505C108.48 88.0898 109.341 91.7871 111.075 95.099C114.646 101.709 120.168 107.07 126.903 110.467C136.306 115.415 146.923 117.659 157.564 116.946C168.206 116.234 178.451 112.593 187.152 106.431L187.184 106.533C194.265 98.505 198.951 88.6787 200.71 78.1668C202.469 67.6546 201.231 56.8775 197.136 47.0563C194.378 40.0743 189.538 34.1037 183.261 29.9413C180.114 27.9178 176.5 26.7168 172.753 26.4489C169.006 26.1812 165.247 26.8552 161.823 28.4089Z" fill="#B7B7B8"/>
</g>
<g filter="url(#filter3_d_3_600)">
<path d="M11.2354 74.6161H27.4175C28.1 74.6161 28.653 75.1692 28.653 75.8515V194.242C28.653 194.924 28.1 195.477 27.4175 195.477H11.2354C10.5531 195.477 10 194.924 10 194.242V75.8515C10 75.1692 10.5531 74.6161 11.2354 74.6161Z" fill="#F06F70"/>
</g>
<g filter="url(#filter4_d_3_600)">
<path d="M227.063 194.821V124.819C227.063 124.456 227.357 124.163 227.719 124.163H245.043C245.405 124.163 245.699 124.456 245.699 124.819V194.821C245.699 195.183 245.405 195.477 245.043 195.477H227.719C227.357 195.477 227.063 195.183 227.063 194.821Z" fill="#F06F70"/>
</g>
<g filter="url(#filter5_d_3_600)">
<path d="M249.206 12C241.082 12.9806 233.67 17.1208 228.576 23.5246C223.309 30.9136 218.971 38.9218 215.659 47.3693L215.749 47.3454L215.58 47.2283C207.875 42.4434 199.653 38.5443 191.072 35.6054C183.119 33.5918 174.694 34.7819 167.61 38.9189C163.722 41.7508 160.62 45.5265 158.596 49.8899C156.572 54.2531 155.693 59.0601 156.043 63.8573C156.704 73.4726 160.315 82.6501 166.382 90.139C174.656 100.678 185.686 108.722 198.25 113.378C210.814 118.035 224.422 119.123 237.566 116.522C249.957 110.849 260.515 101.824 268.047 90.466C275.579 79.108 279.785 65.8704 280.189 52.2481C280.594 42.6596 278.095 33.172 273.02 25.0268C270.465 21.0292 266.944 17.7401 262.782 15.4633C258.619 13.1864 253.951 11.9953 249.206 12Z" fill="#F06F70"/>
</g>
<g filter="url(#filter6_d_3_600)">
<path d="M66.0229 190.334C75.8157 208.301 85.6089 226.27 113.619 226.207C141.629 226.144 189.51 209.697 235.741 191.604" stroke="#F06F70" stroke-width="2.5" stroke-miterlimit="75.255" shape-rendering="crispEdges"/>
</g>
<g filter="url(#filter7_d_3_600)">
<path d="M89.9989 225.569L88.4539 225.077L91.2677 221.21L92.8125 221.702L89.9989 225.569Z" fill="#F06F70"/>
</g>
<path d="M74.84 251.337C74.1295 248.488 73.6368 231.025 78.1722 224.728C82.7075 218.435 89.7405 224.457 89.7405 224.457C89.7405 224.457 77.7839 249.714 74.84 251.337Z" fill="#9B9B9B"/>
<path d="M89.6238 224.418C89.6238 224.418 73.3281 250.621 74.876 251.386C77.6636 250.463 92.683 241.539 95.5781 234.34C98.4733 227.14 89.6238 224.418 89.6238 224.418Z" fill="#B3B3B3"/>
<path d="M228.12 208.876V222.776H225.84V213.256L221.6 222.776H220.02L215.76 213.256V222.776H213.48V208.876H215.94L220.82 219.776L225.68 208.876H228.12ZM230.357 217.216C230.357 216.11 230.583 215.13 231.037 214.276C231.503 213.423 232.13 212.763 232.917 212.296C233.717 211.816 234.597 211.576 235.557 211.576C236.423 211.576 237.177 211.75 237.817 212.096C238.47 212.43 238.99 212.85 239.377 213.356V211.756H241.677V222.776H239.377V221.136C238.99 221.656 238.463 222.09 237.797 222.436C237.13 222.783 236.37 222.956 235.517 222.956C234.57 222.956 233.703 222.716 232.917 222.236C232.13 221.743 231.503 221.063 231.037 220.196C230.583 219.316 230.357 218.323 230.357 217.216ZM239.377 217.256C239.377 216.496 239.217 215.836 238.897 215.276C238.59 214.716 238.183 214.29 237.677 213.996C237.17 213.703 236.623 213.556 236.037 213.556C235.45 213.556 234.903 213.703 234.397 213.996C233.89 214.276 233.477 214.696 233.157 215.256C232.85 215.803 232.697 216.456 232.697 217.216C232.697 217.976 232.85 218.643 233.157 219.216C233.477 219.79 233.89 220.23 234.397 220.536C234.917 220.83 235.463 220.976 236.037 220.976C236.623 220.976 237.17 220.83 237.677 220.536C238.183 220.243 238.59 219.816 238.897 219.256C239.217 218.683 239.377 218.016 239.377 217.256ZM247.331 213.616V219.716C247.331 220.13 247.425 220.43 247.611 220.616C247.811 220.79 248.145 220.876 248.611 220.876H250.011V222.776H248.211C247.185 222.776 246.398 222.536 245.851 222.056C245.305 221.576 245.031 220.796 245.031 219.716V213.616H243.731V211.756H245.031V209.016H247.331V211.756H250.011V213.616H247.331ZM254.393 213.356C254.726 212.796 255.166 212.363 255.713 212.056C256.273 211.736 256.933 211.576 257.693 211.576V213.936H257.113C256.219 213.936 255.539 214.163 255.073 214.616C254.619 215.07 254.393 215.856 254.393 216.976V222.776H252.113V211.756H254.393V213.356ZM260.949 210.296C260.535 210.296 260.189 210.156 259.909 209.876C259.629 209.596 259.489 209.25 259.489 208.836C259.489 208.423 259.629 208.076 259.909 207.796C260.189 207.516 260.535 207.376 260.949 207.376C261.349 207.376 261.689 207.516 261.969 207.796C262.249 208.076 262.389 208.423 262.389 208.836C262.389 209.25 262.249 209.596 261.969 209.876C261.689 210.156 261.349 210.296 260.949 210.296ZM262.069 211.756V222.776H259.789V211.756H262.069ZM278.402 211.576C279.269 211.576 280.042 211.756 280.722 212.116C281.415 212.476 281.955 213.01 282.342 213.716C282.742 214.423 282.942 215.276 282.942 216.276V222.776H280.682V216.616C280.682 215.63 280.435 214.876 279.942 214.356C279.449 213.823 278.775 213.556 277.922 213.556C277.069 213.556 276.389 213.823 275.882 214.356C275.389 214.876 275.142 215.63 275.142 216.616V222.776H272.882V216.616C272.882 215.63 272.635 214.876 272.142 214.356C271.649 213.823 270.975 213.556 270.122 213.556C269.269 213.556 268.589 213.823 268.082 214.356C267.589 214.876 267.342 215.63 267.342 216.616V222.776H265.062V211.756H267.342V213.016C267.715 212.563 268.189 212.21 268.762 211.956C269.335 211.703 269.949 211.576 270.602 211.576C271.482 211.576 272.269 211.763 272.962 212.136C273.655 212.51 274.189 213.05 274.562 213.756C274.895 213.09 275.415 212.563 276.122 212.176C276.829 211.776 277.589 211.576 278.402 211.576ZM290.623 222.956C289.583 222.956 288.643 222.723 287.803 222.256C286.963 221.776 286.303 221.11 285.823 220.256C285.343 219.39 285.103 218.39 285.103 217.256C285.103 216.136 285.35 215.143 285.843 214.276C286.337 213.41 287.01 212.743 287.863 212.276C288.717 211.81 289.67 211.576 290.723 211.576C291.777 211.576 292.73 211.81 293.583 212.276C294.437 212.743 295.11 213.41 295.603 214.276C296.097 215.143 296.343 216.136 296.343 217.256C296.343 218.376 296.09 219.37 295.583 220.236C295.077 221.103 294.383 221.776 293.503 222.256C292.637 222.723 291.677 222.956 290.623 222.956ZM290.623 220.976C291.21 220.976 291.757 220.836 292.263 220.556C292.783 220.276 293.203 219.856 293.523 219.296C293.843 218.736 294.003 218.056 294.003 217.256C294.003 216.456 293.85 215.783 293.543 215.236C293.237 214.676 292.83 214.256 292.323 213.976C291.817 213.696 291.27 213.556 290.683 213.556C290.097 213.556 289.55 213.696 289.043 213.976C288.55 214.256 288.157 214.676 287.863 215.236C287.57 215.783 287.423 216.456 287.423 217.256C287.423 218.443 287.723 219.363 288.323 220.016C288.937 220.656 289.703 220.976 290.623 220.976ZM304.157 211.576C305.024 211.576 305.797 211.756 306.477 212.116C307.171 212.476 307.711 213.01 308.097 213.716C308.484 214.423 308.677 215.276 308.677 216.276V222.776H306.417V216.616C306.417 215.63 306.171 214.876 305.677 214.356C305.184 213.823 304.511 213.556 303.657 213.556C302.804 213.556 302.124 213.823 301.617 214.356C301.124 214.876 300.877 215.63 300.877 216.616V222.776H298.597V211.756H300.877V213.016C301.251 212.563 301.724 212.21 302.297 211.956C302.884 211.703 303.504 211.576 304.157 211.576ZM321.505 211.756L314.745 227.956H312.385L314.625 222.596L310.285 211.756H312.825L315.925 220.156L319.145 211.756H321.505Z" fill="white"/>
<defs>
<filter id="filter0_d_3_600" x="111.038" y="110.776" width="124.505" height="104.72" filterUnits="userSpaceOnUse" color-interpolation-filters="sRGB">
<feFlood flood-opacity="0" result="BackgroundImageFix"/>
<feColorMatrix in="SourceAlpha" type="matrix" values="0 0 0 0 0 0 0 0 0 0 0 0 0 0 0 0 0 0 127 0" result="hardAlpha"/>
<feOffset dx="6" dy="4"/>
<feGaussianBlur stdDeviation="8"/>
<feComposite in2="hardAlpha" operator="out"/>
<feColorMatrix type="matrix" values="0 0 0 0 0 0 0 0 0 0 0 0 0 0 0 0 0 0 0.19 0"/>
<feBlend mode="normal" in2="BackgroundImageFix" result="effect1_dropShadow_3_600"/>
<feBlend mode="normal" in="SourceGraphic" in2="effect1_dropShadow_3_600" result="shape"/>
</filter>
<filter id="filter1_d_3_600" x="31.7727" y="112.142" width="97.0629" height="104.729" filterUnits="userSpaceOnUse" color-interpolation-filters="sRGB">
<feFlood flood-opacity="0" result="BackgroundImageFix"/>
<feColorMatrix in="SourceAlpha" type="matrix" values="0 0 0 0 0 0 0 0 0 0 0 0 0 0 0 0 0 0 127 0" result="hardAlpha"/>
<feOffset dx="6" dy="4"/>
<feGaussianBlur stdDeviation="8"/>
<feComposite in2="hardAlpha" operator="out"/>
<feColorMatrix type="matrix" values="0 0 0 0 0 0 0 0 0 0 0 0 0 0 0 0 0 0 0.19 0"/>
<feBlend mode="normal" in2="BackgroundImageFix" result="effect1_dropShadow_3_600"/>
<feBlend mode="normal" in="SourceGraphic" in2="effect1_dropShadow_3_600" result="shape"/>
</filter>
<filter id="filter2_d_3_600" x="98.5641" y="14.3916" width="124.924" height="122.684" filterUnits="userSpaceOnUse" color-interpolation-filters="sRGB">
<feFlood flood-opacity="0" result="BackgroundImageFix"/>
<feColorMatrix in="SourceAlpha" type="matrix" values="0 0 0 0 0 0 0 0 0 0 0 0 0 0 0 0 0 0 127 0" result="hardAlpha"/>
<feOffset dx="6" dy="4"/>
<feGaussianBlur stdDeviation="8"/>
<feComposite in2="hardAlpha" operator="out"/>
<feColorMatrix type="matrix" values="0 0 0 0 0 0 0 0 0 0 0 0 0 0 0 0 0 0 0.19 0"/>
<feBlend mode="normal" in2="BackgroundImageFix" result="effect1_dropShadow_3_600"/>
<feBlend mode="normal" in="SourceGraphic" in2="effect1_dropShadow_3_600" result="shape"/>
</filter>
<filter id="filter3_d_3_600" x="0" y="62.6162" width="50.653" height="152.861" filterUnits="userSpaceOnUse" color-interpolation-filters="sRGB">
<feFlood flood-opacity="0" result="BackgroundImageFix"/>
<feColorMatrix in="SourceAlpha" type="matrix" values="0 0 0 0 0 0 0 0 0 0 0 0 0 0 0 0 0 0 127 0" result="hardAlpha"/>
<feOffset dx="6" dy="4"/>
<feGaussianBlur stdDeviation="8"/>
<feComposite in2="hardAlpha" operator="out"/>
<feColorMatrix type="matrix" values="0 0 0 0 0 0 0 0 0 0 0 0 0 0 0 0 0 0 0.19 0"/>
<feBlend mode="normal" in2="BackgroundImageFix" result="effect1_dropShadow_3_600"/>
<feBlend mode="normal" in="SourceGraphic" in2="effect1_dropShadow_3_600" result="shape"/>
</filter>
<filter id="filter4_d_3_600" x="217.063" y="112.163" width="50.6355" height="103.314" filterUnits="userSpaceOnUse" color-interpolation-filters="sRGB">
<feFlood flood-opacity="0" result="BackgroundImageFix"/>
<feColorMatrix in="SourceAlpha" type="matrix" values="0 0 0 0 0 0 0 0 0 0 0 0 0 0 0 0 0 0 127 0" result="hardAlpha"/>
<feOffset dx="6" dy="4"/>
<feGaussianBlur stdDeviation="8"/>
<feComposite in2="hardAlpha" operator="out"/>
<feColorMatrix type="matrix" values="0 0 0 0 0 0 0 0 0 0 0 0 0 0 0 0 0 0 0.19 0"/>
<feBlend mode="normal" in2="BackgroundImageFix" result="effect1_dropShadow_3_600"/>
<feBlend mode="normal" in="SourceGraphic" in2="effect1_dropShadow_3_600" result="shape"/>
</filter>
<filter id="filter5_d_3_600" x="145.968" y="0" width="156.263" height="137.902" filterUnits="userSpaceOnUse" color-interpolation-filters="sRGB">
<feFlood flood-opacity="0" result="BackgroundImageFix"/>
<feColorMatrix in="SourceAlpha" type="matrix" values="0 0 0 0 0 0 0 0 0 0 0 0 0 0 0 0 0 0 127 0" result="hardAlpha"/>
<feOffset dx="6" dy="4"/>
<feGaussianBlur stdDeviation="8"/>
<feComposite in2="hardAlpha" operator="out"/>
<feColorMatrix type="matrix" values="0 0 0 0 0 0 0 0 0 0 0 0 0 0 0 0 0 0 0.19 0"/>
<feBlend mode="normal" in2="BackgroundImageFix" result="effect1_dropShadow_3_600"/>
<feBlend mode="normal" in="SourceGraphic" in2="effect1_dropShadow_3_600" result="shape"/>
</filter>
<filter id="filter6_d_3_600" x="56.9253" y="180.735" width="193.271" height="59.7217" filterUnits="userSpaceOnUse" color-interpolation-filters="sRGB">
<feFlood flood-opacity="0" result="BackgroundImageFix"/>
<feColorMatrix in="SourceAlpha" type="matrix" values="0 0 0 0 0 0 0 0 0 0 0 0 0 0 0 0 0 0 127 0" result="hardAlpha"/>
<feOffset dx="3" dy="2"/>
<feGaussianBlur stdDeviation="5.5"/>
<feComposite in2="hardAlpha" operator="out"/>
<feColorMatrix type="matrix" values="0 0 0 0 0 0 0 0 0 0 0 0 0 0 0 0 0 0 0.19 0"/>
<feBlend mode="normal" in2="BackgroundImageFix" result="effect1_dropShadow_3_600"/>
<feBlend mode="normal" in="SourceGraphic" in2="effect1_dropShadow_3_600" result="shape"/>
</filter>
<filter id="filter7_d_3_600" x="80.4539" y="212.21" width="26.3586" height="26.3584" filterUnits="userSpaceOnUse" color-interpolation-filters="sRGB">
<feFlood flood-opacity="0" result="BackgroundImageFix"/>
<feColorMatrix in="SourceAlpha" type="matrix" values="0 0 0 0 0 0 0 0 0 0 0 0 0 0 0 0 0 0 127 0" result="hardAlpha"/>
<feOffset dx="3" dy="2"/>
<feGaussianBlur stdDeviation="5.5"/>
<feComposite in2="hardAlpha" operator="out"/>
<feColorMatrix type="matrix" values="0 0 0 0 0 0 0 0 0 0 0 0 0 0 0 0 0 0 0.19 0"/>
<feBlend mode="normal" in2="BackgroundImageFix" result="effect1_dropShadow_3_600"/>
<feBlend mode="normal" in="SourceGraphic" in2="effect1_dropShadow_3_600" result="shape"/>
</filter>
</defs>
</svg>
