<svg width="27" height="27" viewBox="0 0 27 27" fill="none" xmlns="http://www.w3.org/2000/svg">
<path d="M6.95039 0.00024414C0.50459 0.000244141 -7.40037e-09 0.504834 -1.01935e-07 6.95063L-2.9405e-07 20.0499C-3.88585e-07 26.4957 0.50459 27.0002 6.95039 27.0002L20.0496 27.0002C26.4954 27.0002 27 26.4957 27 20.0499L27 6.99282C27 0.507422 26.4928 0.00024414 20.0074 0.00024414L6.95039 0.00024414ZM6.3 0.900244L20.7 0.900244C25.7085 0.900244 26.1 1.29174 26.1 6.30024L26.1 20.7002C26.1 25.7087 25.7085 26.1002 20.7 26.1002L6.3 26.1002C1.2915 26.1002 0.9 25.7087 0.9 20.7002L0.9 6.30024C0.9 1.29174 1.2915 0.900244 6.3 0.900244ZM7.08926 4.39126C5.98946 4.39126 5.09766 5.28045 5.09766 6.37935C5.09766 7.47825 5.98856 8.37095 7.08926 8.37095C8.18636 8.37095 9.07734 7.47825 9.07734 6.37935C9.07734 5.28225 8.18636 4.39126 7.08926 4.39126ZM17.5043 9.66821C15.8534 9.66821 14.7444 10.5699 14.2832 11.4286C14.2782 11.4379 14.2686 11.4436 14.258 11.4436C14.2423 11.4436 14.2295 11.4308 14.2295 11.4151L14.2295 10.693C14.2295 10.2785 13.8934 9.94243 13.4789 9.94243L12.5921 9.94243C11.6878 9.94243 10.9547 10.6755 10.9547 11.5798L10.9547 19.2193C10.9547 20.1615 11.7185 20.9252 12.6606 20.9252C13.6028 20.9252 14.3666 20.1615 14.3666 19.2193L14.3666 15.4918C14.3666 14.0599 14.6379 12.6706 16.4145 12.6706C18.165 12.6706 18.1898 14.3089 18.1898 15.5833L18.1898 19.2202C18.1898 20.1619 18.9532 20.9252 19.8949 20.9252C20.8366 20.9252 21.6 20.1619 21.6 19.2202L21.6 14.9012C21.6 11.9438 20.9603 9.66821 17.5043 9.66821ZM7.0875 9.94243C6.14484 9.94243 5.38066 10.7066 5.38066 11.6493L5.38066 19.2184C5.38066 20.1611 6.14484 20.9252 7.0875 20.9252C8.03016 20.9252 8.79434 20.1611 8.79434 19.2184L8.79434 11.6493C8.79434 10.7066 8.03016 9.94243 7.0875 9.94243Z" fill="white"/>
</svg>
