<svg width="170" height="126" viewBox="0 0 170 126" fill="none" xmlns="http://www.w3.org/2000/svg">
<g filter="url(#filter0_d_3_942)">
<path d="M60.095 62.8285C60.095 62.6875 60.2097 62.5735 60.3507 62.573C60.9013 62.5712 61.4333 62.5658 61.9647 62.5827C62.078 62.5863 62.2095 62.6904 62.2952 62.7819C62.9321 63.462 63.5612 64.1491 64.1706 64.8114C64.2541 64.9022 64.3906 64.9197 64.4945 64.8531C65.235 64.3782 65.9402 63.8755 66.7028 63.4789C70.2487 61.6345 73.8863 61.4832 77.5731 63.0531C78.8152 63.5819 79.8088 64.4503 80.6796 65.4568C80.7733 65.5651 80.9373 65.5754 81.0426 65.4784C81.6317 64.936 82.1834 64.3734 82.8116 63.9111C84.8598 62.404 87.2311 61.9172 89.7368 62.0019C95.7324 62.2046 100.684 66.4915 101.662 72.3123C101.768 72.9411 101.82 73.5859 101.821 74.2234C101.832 80.9123 101.828 87.6013 101.828 94.2903V94.5103C101.828 94.6514 101.713 94.7659 101.572 94.7659H93.7352C93.594 94.7659 93.4795 94.6514 93.4795 94.5103V94.3272C93.4795 87.7614 93.4744 81.1956 93.483 74.6299C93.4853 72.8764 92.794 71.5111 91.1954 70.685C88.4257 69.2535 85.1594 71.241 85.1569 74.3438C85.1515 80.9835 85.1553 87.6232 85.1552 94.2629V94.5288C85.1552 94.67 85.0407 94.7844 84.8995 94.7844H77.0251C76.8838 94.7844 76.7691 94.6698 76.7691 94.5284V94.3111C76.7691 87.733 76.7642 81.1549 76.7724 74.5767C76.7746 72.8476 76.074 71.5126 74.5112 70.6947C71.7621 69.256 68.463 71.22 68.4593 74.2866C68.4513 80.9509 68.4568 87.6152 68.4568 94.2796V94.5196C68.4568 94.6609 68.3423 94.7753 68.201 94.7753H60.3506C60.2094 94.7753 60.095 94.6609 60.095 94.5197V62.8285Z" fill="#F06F70"/>
</g>
<g filter="url(#filter1_d_3_942)">
<path d="M49.1165 91.3262C49.0159 91.1925 48.8245 91.1667 48.6917 91.2685C48.0287 91.7771 47.3864 92.2913 46.7111 92.7596C44.9074 94.0104 42.9392 94.9244 40.7428 95.2507C37.9249 95.6694 35.2079 95.223 32.6417 94.0395C28.2789 92.0274 25.703 88.6028 24.7308 84.0192C24.4671 82.7758 24.3659 81.4799 24.3574 80.2071C24.3189 74.4919 24.3406 68.7763 24.3406 63.0608V62.9005C24.3406 62.7338 24.4757 62.5987 24.6424 62.5987H32.3996C32.5663 62.5987 32.7014 62.7338 32.7014 62.9005V63.0514C32.7014 68.8408 32.6958 74.6302 32.7048 80.4195C32.7076 82.1396 33.1627 83.7242 34.2777 85.0923C36.131 87.3661 40.5821 88.5026 43.6001 84.9216C44.7722 83.5307 45.3354 81.9241 45.334 80.1183C45.3295 74.4398 45.3324 68.7613 45.3324 63.0828V62.8949C45.3324 62.728 45.4676 62.5927 45.6345 62.5927H53.3861C53.5528 62.5927 53.6878 62.7278 53.6878 62.8945V94.4969C53.6878 94.6632 53.5531 94.7979 53.3867 94.7986C52.8473 94.8006 52.3113 94.8056 51.7762 94.7865C51.6734 94.7829 51.5554 94.6434 51.4799 94.5414C50.6981 93.4861 49.9236 92.4252 49.1465 91.3665C49.1366 91.353 49.1266 91.3395 49.1165 91.3262Z" fill="#F06F70"/>
</g>
<g filter="url(#filter2_d_3_942)">
<path d="M78.4956 19.4032C75.9792 20.8608 74.1352 23.2393 73.3609 26.0262C72.4832 28.7447 72.7496 32.7233 72.6083 35.5696L72.6561 35.5486L72.5904 35.5453C69.7249 35.4486 65.7693 34.7752 62.9543 35.383C60.0893 35.8877 57.5329 37.4882 55.835 39.8403C54.9809 41.303 54.5115 42.9544 54.4705 44.6414C54.4294 46.3284 54.8181 47.9965 55.6002 49.4906C57.2114 52.4729 59.7027 54.8916 62.7412 56.4238C66.9834 58.6565 71.7732 59.6687 76.574 59.3472C81.375 59.0256 85.9971 57.383 89.9228 54.6033L89.9372 54.649C93.132 51.0273 95.2459 46.5941 96.0395 41.8516C96.833 37.109 96.2745 32.2469 94.4271 27.816C93.1828 24.6661 90.999 21.9724 88.1673 20.0945C86.7473 19.1816 85.1169 18.6398 83.4265 18.519C81.7361 18.3982 80.0404 18.7023 78.4956 19.4032Z" fill="#B7B7B8"/>
</g>
<g filter="url(#filter3_d_3_942)">
<path d="M10.5574 40.2495H17.858C18.1659 40.2495 18.4153 40.4991 18.4153 40.8069V94.219C18.4153 94.5269 18.1659 94.7764 17.858 94.7764H10.5574C10.2496 94.7764 10 94.5269 10 94.219V40.8069C10 40.4991 10.2496 40.2495 10.5574 40.2495Z" fill="#F06F70"/>
</g>
<g filter="url(#filter4_d_3_942)">
<path d="M107.929 94.4804V62.8987C107.929 62.7352 108.061 62.6027 108.225 62.6027H116.04C116.204 62.6027 116.336 62.7352 116.336 62.8987V94.4804C116.336 94.6439 116.204 94.7764 116.04 94.7764H108.225C108.061 94.7764 107.929 94.6439 107.929 94.4804Z" fill="#F06F70"/>
</g>
<g filter="url(#filter5_d_3_942)">
<path d="M117.919 12.0001C114.253 12.4425 110.91 14.3104 108.611 17.1995C106.235 20.5331 104.278 24.146 102.784 27.9571L102.824 27.9463L102.748 27.8935C99.2718 25.7348 95.5626 23.9757 91.6913 22.6498C88.1034 21.7414 84.3023 22.2782 81.1063 24.1447C79.3522 25.4223 77.9527 27.1257 77.0396 29.0943C76.1266 31.0628 75.7301 33.2314 75.8877 35.3957C76.1861 39.7337 77.8151 43.8741 80.5524 47.2528C84.2852 52.0075 89.2615 55.6364 94.9298 57.7371C100.598 59.838 106.737 60.3289 112.667 59.1554C118.258 56.5961 123.021 52.5244 126.419 47.4003C129.817 42.2761 131.714 36.304 131.897 30.1582C132.079 25.8323 130.952 21.552 128.662 17.8772C127.51 16.0737 125.921 14.5898 124.043 13.5626C122.166 12.5354 120.059 11.998 117.919 12.0001Z" fill="#F06F70"/>
</g>
<g filter="url(#filter6_d_3_942)">
<path d="M35.2749 92.4552C39.6929 100.561 44.1112 108.668 56.7479 108.64C69.3847 108.611 90.9865 101.191 111.844 93.0286" stroke="#F06F70" stroke-width="2.5" stroke-miterlimit="75.255" shape-rendering="crispEdges"/>
</g>
<g filter="url(#filter7_d_3_942)">
<path d="M46.0918 108.351L45.3948 108.13L46.6642 106.385L47.3612 106.607L46.0918 108.351Z" fill="#F06F70"/>
</g>
<path d="M39.2528 119.978C38.9322 118.692 38.7099 110.813 40.7561 107.972C42.8022 105.134 45.9751 107.85 45.9751 107.85C45.9751 107.85 40.5809 119.245 39.2528 119.978Z" fill="#9B9B9B"/>
<path d="M45.9225 107.833C45.9225 107.833 38.5706 119.655 39.2689 120C40.5266 119.583 47.3026 115.557 48.6088 112.309C49.915 109.061 45.9225 107.833 45.9225 107.833Z" fill="#B3B3B3"/>
<path d="M104.387 112.27V122H102.791V115.336L99.8229 122H98.7169L95.7349 115.336V122H94.1389V112.27H95.8609L99.2769 119.9L102.679 112.27H104.387ZM105.953 118.108C105.953 117.333 106.111 116.647 106.429 116.05C106.755 115.453 107.194 114.991 107.745 114.664C108.305 114.328 108.921 114.16 109.593 114.16C110.199 114.16 110.727 114.281 111.175 114.524C111.632 114.757 111.996 115.051 112.267 115.406V114.286H113.877V122H112.267V120.852C111.996 121.216 111.627 121.519 111.161 121.762C110.694 122.005 110.162 122.126 109.565 122.126C108.902 122.126 108.295 121.958 107.745 121.622C107.194 121.277 106.755 120.801 106.429 120.194C106.111 119.578 105.953 118.883 105.953 118.108ZM112.267 118.136C112.267 117.604 112.155 117.142 111.931 116.75C111.716 116.358 111.431 116.059 111.077 115.854C110.722 115.649 110.339 115.546 109.929 115.546C109.518 115.546 109.135 115.649 108.781 115.854C108.426 116.05 108.137 116.344 107.913 116.736C107.698 117.119 107.591 117.576 107.591 118.108C107.591 118.64 107.698 119.107 107.913 119.508C108.137 119.909 108.426 120.217 108.781 120.432C109.145 120.637 109.527 120.74 109.929 120.74C110.339 120.74 110.722 120.637 111.077 120.432C111.431 120.227 111.716 119.928 111.931 119.536C112.155 119.135 112.267 118.668 112.267 118.136ZM117.835 115.588V119.858C117.835 120.147 117.9 120.357 118.031 120.488C118.171 120.609 118.404 120.67 118.731 120.67H119.711V122H118.451C117.732 122 117.182 121.832 116.799 121.496C116.416 121.16 116.225 120.614 116.225 119.858V115.588H115.315V114.286H116.225V112.368H117.835V114.286H119.711V115.588H117.835ZM122.778 115.406C123.011 115.014 123.319 114.711 123.702 114.496C124.094 114.272 124.556 114.16 125.088 114.16V115.812H124.682C124.057 115.812 123.581 115.971 123.254 116.288C122.937 116.605 122.778 117.156 122.778 117.94V122H121.182V114.286H122.778V115.406ZM127.367 113.264C127.078 113.264 126.835 113.166 126.639 112.97C126.443 112.774 126.345 112.531 126.345 112.242C126.345 111.953 126.443 111.71 126.639 111.514C126.835 111.318 127.078 111.22 127.367 111.22C127.647 111.22 127.885 111.318 128.081 111.514C128.277 111.71 128.375 111.953 128.375 112.242C128.375 112.531 128.277 112.774 128.081 112.97C127.885 113.166 127.647 113.264 127.367 113.264ZM128.151 114.286V122H126.555V114.286H128.151ZM139.584 114.16C140.191 114.16 140.732 114.286 141.208 114.538C141.694 114.79 142.072 115.163 142.342 115.658C142.622 116.153 142.762 116.75 142.762 117.45V122H141.18V117.688C141.18 116.997 141.008 116.47 140.662 116.106C140.317 115.733 139.846 115.546 139.248 115.546C138.651 115.546 138.175 115.733 137.82 116.106C137.475 116.47 137.302 116.997 137.302 117.688V122H135.72V117.688C135.72 116.997 135.548 116.47 135.202 116.106C134.857 115.733 134.386 115.546 133.788 115.546C133.191 115.546 132.715 115.733 132.36 116.106C132.015 116.47 131.842 116.997 131.842 117.688V122H130.246V114.286H131.842V115.168C132.104 114.851 132.435 114.603 132.836 114.426C133.238 114.249 133.667 114.16 134.124 114.16C134.74 114.16 135.291 114.291 135.776 114.552C136.262 114.813 136.635 115.191 136.896 115.686C137.13 115.219 137.494 114.851 137.988 114.58C138.483 114.3 139.015 114.16 139.584 114.16ZM148.139 122.126C147.411 122.126 146.753 121.963 146.165 121.636C145.577 121.3 145.115 120.833 144.779 120.236C144.443 119.629 144.275 118.929 144.275 118.136C144.275 117.352 144.448 116.657 144.793 116.05C145.138 115.443 145.61 114.977 146.207 114.65C146.804 114.323 147.472 114.16 148.209 114.16C148.946 114.16 149.614 114.323 150.211 114.65C150.808 114.977 151.28 115.443 151.625 116.05C151.97 116.657 152.143 117.352 152.143 118.136C152.143 118.92 151.966 119.615 151.611 120.222C151.256 120.829 150.771 121.3 150.155 121.636C149.548 121.963 148.876 122.126 148.139 122.126ZM148.139 120.74C148.55 120.74 148.932 120.642 149.287 120.446C149.651 120.25 149.945 119.956 150.169 119.564C150.393 119.172 150.505 118.696 150.505 118.136C150.505 117.576 150.398 117.105 150.183 116.722C149.968 116.33 149.684 116.036 149.329 115.84C148.974 115.644 148.592 115.546 148.181 115.546C147.77 115.546 147.388 115.644 147.033 115.84C146.688 116.036 146.412 116.33 146.207 116.722C146.002 117.105 145.899 117.576 145.899 118.136C145.899 118.967 146.109 119.611 146.529 120.068C146.958 120.516 147.495 120.74 148.139 120.74ZM157.613 114.16C158.22 114.16 158.761 114.286 159.237 114.538C159.722 114.79 160.1 115.163 160.371 115.658C160.642 116.153 160.777 116.75 160.777 117.45V122H159.195V117.688C159.195 116.997 159.022 116.47 158.677 116.106C158.332 115.733 157.86 115.546 157.263 115.546C156.666 115.546 156.19 115.733 155.835 116.106C155.49 116.47 155.317 116.997 155.317 117.688V122H153.721V114.286H155.317V115.168C155.578 114.851 155.91 114.603 156.311 114.426C156.722 114.249 157.156 114.16 157.613 114.16ZM169.757 114.286L165.025 125.626H163.373L164.941 121.874L161.903 114.286H163.681L165.851 120.166L168.105 114.286H169.757Z" fill="#586E79"/>
<defs>
<filter id="filter0_d_3_942" x="50.095" y="49.9766" width="73.7336" height="64.8079" filterUnits="userSpaceOnUse" color-interpolation-filters="sRGB">
<feFlood flood-opacity="0" result="BackgroundImageFix"/>
<feColorMatrix in="SourceAlpha" type="matrix" values="0 0 0 0 0 0 0 0 0 0 0 0 0 0 0 0 0 0 127 0" result="hardAlpha"/>
<feOffset dx="6" dy="4"/>
<feGaussianBlur stdDeviation="8"/>
<feComposite in2="hardAlpha" operator="out"/>
<feColorMatrix type="matrix" values="0 0 0 0 0 0 0 0 0 0 0 0 0 0 0 0 0 0 0.19 0"/>
<feBlend mode="normal" in2="BackgroundImageFix" result="effect1_dropShadow_3_942"/>
<feBlend mode="normal" in="SourceGraphic" in2="effect1_dropShadow_3_942" result="shape"/>
</filter>
<filter id="filter1_d_3_942" x="14.3345" y="50.5928" width="61.3533" height="64.8118" filterUnits="userSpaceOnUse" color-interpolation-filters="sRGB">
<feFlood flood-opacity="0" result="BackgroundImageFix"/>
<feColorMatrix in="SourceAlpha" type="matrix" values="0 0 0 0 0 0 0 0 0 0 0 0 0 0 0 0 0 0 127 0" result="hardAlpha"/>
<feOffset dx="6" dy="4"/>
<feGaussianBlur stdDeviation="8"/>
<feComposite in2="hardAlpha" operator="out"/>
<feColorMatrix type="matrix" values="0 0 0 0 0 0 0 0 0 0 0 0 0 0 0 0 0 0 0.19 0"/>
<feBlend mode="normal" in2="BackgroundImageFix" result="effect1_dropShadow_3_942"/>
<feBlend mode="normal" in="SourceGraphic" in2="effect1_dropShadow_3_942" result="shape"/>
</filter>
<filter id="filter2_d_3_942" x="44.4675" y="6.49316" width="73.9229" height="72.9124" filterUnits="userSpaceOnUse" color-interpolation-filters="sRGB">
<feFlood flood-opacity="0" result="BackgroundImageFix"/>
<feColorMatrix in="SourceAlpha" type="matrix" values="0 0 0 0 0 0 0 0 0 0 0 0 0 0 0 0 0 0 127 0" result="hardAlpha"/>
<feOffset dx="6" dy="4"/>
<feGaussianBlur stdDeviation="8"/>
<feComposite in2="hardAlpha" operator="out"/>
<feColorMatrix type="matrix" values="0 0 0 0 0 0 0 0 0 0 0 0 0 0 0 0 0 0 0.19 0"/>
<feBlend mode="normal" in2="BackgroundImageFix" result="effect1_dropShadow_3_942"/>
<feBlend mode="normal" in="SourceGraphic" in2="effect1_dropShadow_3_942" result="shape"/>
</filter>
<filter id="filter3_d_3_942" x="0" y="28.2495" width="40.4153" height="86.5269" filterUnits="userSpaceOnUse" color-interpolation-filters="sRGB">
<feFlood flood-opacity="0" result="BackgroundImageFix"/>
<feColorMatrix in="SourceAlpha" type="matrix" values="0 0 0 0 0 0 0 0 0 0 0 0 0 0 0 0 0 0 127 0" result="hardAlpha"/>
<feOffset dx="6" dy="4"/>
<feGaussianBlur stdDeviation="8"/>
<feComposite in2="hardAlpha" operator="out"/>
<feColorMatrix type="matrix" values="0 0 0 0 0 0 0 0 0 0 0 0 0 0 0 0 0 0 0.19 0"/>
<feBlend mode="normal" in2="BackgroundImageFix" result="effect1_dropShadow_3_942"/>
<feBlend mode="normal" in="SourceGraphic" in2="effect1_dropShadow_3_942" result="shape"/>
</filter>
<filter id="filter4_d_3_942" x="97.9287" y="50.6028" width="40.4075" height="64.1736" filterUnits="userSpaceOnUse" color-interpolation-filters="sRGB">
<feFlood flood-opacity="0" result="BackgroundImageFix"/>
<feColorMatrix in="SourceAlpha" type="matrix" values="0 0 0 0 0 0 0 0 0 0 0 0 0 0 0 0 0 0 127 0" result="hardAlpha"/>
<feOffset dx="6" dy="4"/>
<feGaussianBlur stdDeviation="8"/>
<feComposite in2="hardAlpha" operator="out"/>
<feColorMatrix type="matrix" values="0 0 0 0 0 0 0 0 0 0 0 0 0 0 0 0 0 0 0.19 0"/>
<feBlend mode="normal" in2="BackgroundImageFix" result="effect1_dropShadow_3_942"/>
<feBlend mode="normal" in="SourceGraphic" in2="effect1_dropShadow_3_942" result="shape"/>
</filter>
<filter id="filter5_d_3_942" x="65.854" y="0" width="88.0618" height="79.7783" filterUnits="userSpaceOnUse" color-interpolation-filters="sRGB">
<feFlood flood-opacity="0" result="BackgroundImageFix"/>
<feColorMatrix in="SourceAlpha" type="matrix" values="0 0 0 0 0 0 0 0 0 0 0 0 0 0 0 0 0 0 127 0" result="hardAlpha"/>
<feOffset dx="6" dy="4"/>
<feGaussianBlur stdDeviation="8"/>
<feComposite in2="hardAlpha" operator="out"/>
<feColorMatrix type="matrix" values="0 0 0 0 0 0 0 0 0 0 0 0 0 0 0 0 0 0 0.19 0"/>
<feBlend mode="normal" in2="BackgroundImageFix" result="effect1_dropShadow_3_942"/>
<feBlend mode="normal" in="SourceGraphic" in2="effect1_dropShadow_3_942" result="shape"/>
</filter>
<filter id="filter6_d_3_942" x="26.1772" y="82.8569" width="100.122" height="40.0327" filterUnits="userSpaceOnUse" color-interpolation-filters="sRGB">
<feFlood flood-opacity="0" result="BackgroundImageFix"/>
<feColorMatrix in="SourceAlpha" type="matrix" values="0 0 0 0 0 0 0 0 0 0 0 0 0 0 0 0 0 0 127 0" result="hardAlpha"/>
<feOffset dx="3" dy="2"/>
<feGaussianBlur stdDeviation="5.5"/>
<feComposite in2="hardAlpha" operator="out"/>
<feColorMatrix type="matrix" values="0 0 0 0 0 0 0 0 0 0 0 0 0 0 0 0 0 0 0.19 0"/>
<feBlend mode="normal" in2="BackgroundImageFix" result="effect1_dropShadow_3_942"/>
<feBlend mode="normal" in="SourceGraphic" in2="effect1_dropShadow_3_942" result="shape"/>
</filter>
<filter id="filter7_d_3_942" x="37.3948" y="97.385" width="23.9663" height="23.9663" filterUnits="userSpaceOnUse" color-interpolation-filters="sRGB">
<feFlood flood-opacity="0" result="BackgroundImageFix"/>
<feColorMatrix in="SourceAlpha" type="matrix" values="0 0 0 0 0 0 0 0 0 0 0 0 0 0 0 0 0 0 127 0" result="hardAlpha"/>
<feOffset dx="3" dy="2"/>
<feGaussianBlur stdDeviation="5.5"/>
<feComposite in2="hardAlpha" operator="out"/>
<feColorMatrix type="matrix" values="0 0 0 0 0 0 0 0 0 0 0 0 0 0 0 0 0 0 0.19 0"/>
<feBlend mode="normal" in2="BackgroundImageFix" result="effect1_dropShadow_3_942"/>
<feBlend mode="normal" in="SourceGraphic" in2="effect1_dropShadow_3_942" result="shape"/>
</filter>
</defs>
</svg>
