<svg width="334" height="252" viewBox="0 0 334 252" fill="none" xmlns="http://www.w3.org/2000/svg">
<g filter="url(#filter0_d_3_985)">
<path d="M121.037 124.664C121.037 124.352 121.292 124.099 121.604 124.098C122.825 124.094 124.004 124.082 125.182 124.12C125.433 124.128 125.725 124.358 125.914 124.561C127.326 126.069 128.721 127.592 130.071 129.06C130.256 129.261 130.559 129.3 130.789 129.152C132.431 128.099 133.994 126.985 135.684 126.106C143.544 122.018 151.607 121.683 159.779 125.162C162.532 126.334 164.734 128.259 166.664 130.49C166.872 130.73 167.235 130.753 167.469 130.538C168.775 129.336 169.997 128.089 171.39 127.064C175.93 123.724 181.186 122.645 186.74 122.832C200.029 123.282 211.004 132.784 213.173 145.686C213.408 147.08 213.522 148.509 213.525 149.922C213.55 164.748 213.54 179.574 213.54 194.401V194.888C213.54 195.201 213.286 195.455 212.974 195.455H195.602C195.289 195.455 195.036 195.201 195.036 194.888V194.483C195.036 179.929 195.024 165.376 195.043 150.823C195.049 146.936 193.516 143.91 189.973 142.079C183.834 138.906 176.594 143.311 176.588 150.189C176.576 164.906 176.585 179.623 176.585 194.34V194.929C176.585 195.242 176.331 195.496 176.018 195.496H158.564C158.251 195.496 157.996 195.242 157.996 194.929V194.447C157.996 179.866 157.986 165.286 158.004 150.705C158.008 146.872 156.456 143.913 152.992 142.1C146.898 138.911 139.586 143.265 139.577 150.062C139.56 164.834 139.572 179.605 139.572 194.377V194.909C139.572 195.222 139.318 195.476 139.005 195.476H121.604C121.291 195.476 121.037 195.222 121.037 194.909V124.664Z" fill="#F06F70"/>
</g>
<g filter="url(#filter1_d_3_985)">
<path d="M96.7031 187.831C96.4801 187.535 96.0559 187.477 95.7616 187.703C94.292 188.831 92.8682 189.97 91.3714 191.008C87.3734 193.781 83.0108 195.807 78.1425 196.53C71.8965 197.458 65.874 196.468 60.186 193.845C50.5157 189.385 44.8061 181.794 42.6513 171.635C42.0667 168.879 41.8424 166.006 41.8235 163.185C41.7381 150.517 41.7862 137.848 41.7862 125.18V124.824C41.7862 124.455 42.0858 124.155 42.4552 124.155H59.6494C60.0189 124.155 60.3183 124.455 60.3183 124.824V125.159C60.3183 137.991 60.3058 150.824 60.326 163.656C60.332 167.469 61.3407 170.981 63.8123 174.013C67.9202 179.053 77.7862 181.572 84.4757 173.635C87.0738 170.552 88.3222 166.991 88.319 162.988C88.3091 150.402 88.3154 137.815 88.3154 125.228V124.812C88.3154 124.442 88.6151 124.142 88.9851 124.142H106.167C106.536 124.142 106.836 124.442 106.836 124.811V194.859C106.836 195.228 106.537 195.526 106.168 195.528C104.973 195.532 103.784 195.543 102.598 195.501C102.371 195.493 102.109 195.184 101.942 194.958C100.209 192.618 98.4921 190.267 96.7696 187.92C96.7476 187.89 96.7254 187.861 96.7031 187.831Z" fill="#F06F70"/>
</g>
<g filter="url(#filter2_d_3_985)">
<path d="M161.823 28.4089C156.246 31.6398 152.158 36.9119 150.442 43.0891C148.496 49.1146 149.087 57.9334 148.774 64.2425L148.88 64.1959L148.734 64.1885C142.383 63.9742 133.615 62.4816 127.375 63.8288C121.025 64.9474 115.359 68.4951 111.595 73.7087C109.702 76.9506 108.662 80.6112 108.571 84.3505C108.48 88.0898 109.341 91.7871 111.075 95.099C114.646 101.709 120.168 107.07 126.903 110.467C136.306 115.415 146.923 117.659 157.564 116.946C168.206 116.234 178.451 112.593 187.152 106.431L187.184 106.533C194.265 98.505 198.951 88.6787 200.71 78.1668C202.469 67.6546 201.231 56.8775 197.136 47.0563C194.378 40.0743 189.538 34.1037 183.261 29.9413C180.114 27.9178 176.5 26.7168 172.753 26.4489C169.006 26.1812 165.247 26.8552 161.823 28.4089Z" fill="#B7B7B8"/>
</g>
<g filter="url(#filter3_d_3_985)">
<path d="M11.2354 74.6163H27.4175C28.1 74.6163 28.653 75.1694 28.653 75.8517V194.242C28.653 194.924 28.1 195.477 27.4175 195.477H11.2354C10.5531 195.477 10 194.924 10 194.242V75.8517C10 75.1694 10.5531 74.6163 11.2354 74.6163Z" fill="#F06F70"/>
</g>
<g filter="url(#filter4_d_3_985)">
<path d="M227.063 194.821V124.819C227.063 124.457 227.357 124.163 227.719 124.163H245.043C245.405 124.163 245.699 124.457 245.699 124.819V194.821C245.699 195.184 245.405 195.477 245.043 195.477H227.719C227.357 195.477 227.063 195.184 227.063 194.821Z" fill="#F06F70"/>
</g>
<g filter="url(#filter5_d_3_985)">
<path d="M249.206 12C241.082 12.9806 233.67 17.1208 228.576 23.5246C223.309 30.9136 218.971 38.9218 215.659 47.3693L215.749 47.3454L215.58 47.2283C207.875 42.4434 199.653 38.5443 191.072 35.6054C183.119 33.5918 174.694 34.7819 167.61 38.9189C163.722 41.7508 160.62 45.5265 158.596 49.8899C156.572 54.2531 155.693 59.0601 156.043 63.8573C156.704 73.4726 160.315 82.6501 166.382 90.139C174.656 100.678 185.686 108.722 198.25 113.378C210.814 118.035 224.422 119.123 237.566 116.522C249.957 110.849 260.515 101.824 268.047 90.466C275.579 79.108 279.785 65.8704 280.189 52.2481C280.594 42.6596 278.095 33.172 273.02 25.0268C270.465 21.0292 266.944 17.7401 262.782 15.4633C258.619 13.1864 253.951 11.9953 249.206 12Z" fill="#F06F70"/>
</g>
<g filter="url(#filter6_d_3_985)">
<path d="M66.0229 190.334C75.8157 208.301 85.6089 226.27 113.619 226.207C141.629 226.144 189.51 209.697 235.741 191.604" stroke="#F06F70" stroke-width="2.5" stroke-miterlimit="75.255" shape-rendering="crispEdges"/>
</g>
<g filter="url(#filter7_d_3_985)">
<path d="M89.999 225.569L88.454 225.077L91.2678 221.21L92.8125 221.702L89.999 225.569Z" fill="#F06F70"/>
</g>
<path d="M74.84 251.337C74.1295 248.488 73.6368 231.025 78.1722 224.728C82.7075 218.435 89.7405 224.457 89.7405 224.457C89.7405 224.457 77.7839 249.714 74.84 251.337Z" fill="#9B9B9B"/>
<path d="M89.6239 224.418C89.6239 224.418 73.3281 250.621 74.876 251.386C77.6637 250.463 92.683 241.54 95.5782 234.34C98.4733 227.14 89.6239 224.418 89.6239 224.418Z" fill="#B3B3B3"/>
<path d="M221.767 209.1V223H219.487V213.48L215.247 223H213.667L209.407 213.48V223H207.127V209.1H209.587L214.467 220L219.327 209.1H221.767ZM224.004 217.44C224.004 216.333 224.23 215.353 224.684 214.5C225.15 213.647 225.777 212.987 226.564 212.52C227.364 212.04 228.244 211.8 229.204 211.8C230.07 211.8 230.824 211.973 231.464 212.32C232.117 212.653 232.637 213.073 233.024 213.58V211.98H235.324V223H233.024V221.36C232.637 221.88 232.11 222.313 231.444 222.66C230.777 223.007 230.017 223.18 229.164 223.18C228.217 223.18 227.35 222.94 226.564 222.46C225.777 221.967 225.15 221.287 224.684 220.42C224.23 219.54 224.004 218.547 224.004 217.44ZM233.024 217.48C233.024 216.72 232.864 216.06 232.544 215.5C232.237 214.94 231.83 214.513 231.324 214.22C230.817 213.927 230.27 213.78 229.684 213.78C229.097 213.78 228.55 213.927 228.044 214.22C227.537 214.5 227.124 214.92 226.804 215.48C226.497 216.027 226.344 216.68 226.344 217.44C226.344 218.2 226.497 218.867 226.804 219.44C227.124 220.013 227.537 220.453 228.044 220.76C228.564 221.053 229.11 221.2 229.684 221.2C230.27 221.2 230.817 221.053 231.324 220.76C231.83 220.467 232.237 220.04 232.544 219.48C232.864 218.907 233.024 218.24 233.024 217.48ZM240.978 213.84V219.94C240.978 220.353 241.072 220.653 241.258 220.84C241.458 221.013 241.792 221.1 242.258 221.1H243.658V223H241.858C240.832 223 240.045 222.76 239.498 222.28C238.952 221.8 238.678 221.02 238.678 219.94V213.84H237.378V211.98H238.678V209.24H240.978V211.98H243.658V213.84H240.978ZM248.04 213.58C248.373 213.02 248.813 212.587 249.36 212.28C249.92 211.96 250.58 211.8 251.34 211.8V214.16H250.76C249.866 214.16 249.186 214.387 248.72 214.84C248.266 215.293 248.04 216.08 248.04 217.2V223H245.76V211.98H248.04V213.58ZM254.596 210.52C254.182 210.52 253.836 210.38 253.556 210.1C253.276 209.82 253.136 209.473 253.136 209.06C253.136 208.647 253.276 208.3 253.556 208.02C253.836 207.74 254.182 207.6 254.596 207.6C254.996 207.6 255.336 207.74 255.616 208.02C255.896 208.3 256.036 208.647 256.036 209.06C256.036 209.473 255.896 209.82 255.616 210.1C255.336 210.38 254.996 210.52 254.596 210.52ZM255.716 211.98V223H253.436V211.98H255.716ZM272.049 211.8C272.916 211.8 273.689 211.98 274.369 212.34C275.062 212.7 275.602 213.233 275.989 213.94C276.389 214.647 276.589 215.5 276.589 216.5V223H274.329V216.84C274.329 215.853 274.082 215.1 273.589 214.58C273.096 214.047 272.422 213.78 271.569 213.78C270.716 213.78 270.036 214.047 269.529 214.58C269.036 215.1 268.789 215.853 268.789 216.84V223H266.529V216.84C266.529 215.853 266.282 215.1 265.789 214.58C265.296 214.047 264.622 213.78 263.769 213.78C262.916 213.78 262.236 214.047 261.729 214.58C261.236 215.1 260.989 215.853 260.989 216.84V223H258.709V211.98H260.989V213.24C261.362 212.787 261.836 212.433 262.409 212.18C262.982 211.927 263.596 211.8 264.249 211.8C265.129 211.8 265.916 211.987 266.609 212.36C267.302 212.733 267.836 213.273 268.209 213.98C268.542 213.313 269.062 212.787 269.769 212.4C270.476 212 271.236 211.8 272.049 211.8ZM284.27 223.18C283.23 223.18 282.29 222.947 281.45 222.48C280.61 222 279.95 221.333 279.47 220.48C278.99 219.613 278.75 218.613 278.75 217.48C278.75 216.36 278.997 215.367 279.49 214.5C279.984 213.633 280.657 212.967 281.51 212.5C282.364 212.033 283.317 211.8 284.37 211.8C285.424 211.8 286.377 212.033 287.23 212.5C288.084 212.967 288.757 213.633 289.25 214.5C289.744 215.367 289.99 216.36 289.99 217.48C289.99 218.6 289.737 219.593 289.23 220.46C288.724 221.327 288.03 222 287.15 222.48C286.284 222.947 285.324 223.18 284.27 223.18ZM284.27 221.2C284.857 221.2 285.404 221.06 285.91 220.78C286.43 220.5 286.85 220.08 287.17 219.52C287.49 218.96 287.65 218.28 287.65 217.48C287.65 216.68 287.497 216.007 287.19 215.46C286.884 214.9 286.477 214.48 285.97 214.2C285.464 213.92 284.917 213.78 284.33 213.78C283.744 213.78 283.197 213.92 282.69 214.2C282.197 214.48 281.804 214.9 281.51 215.46C281.217 216.007 281.07 216.68 281.07 217.48C281.07 218.667 281.37 219.587 281.97 220.24C282.584 220.88 283.35 221.2 284.27 221.2ZM297.804 211.8C298.671 211.8 299.444 211.98 300.124 212.34C300.817 212.7 301.357 213.233 301.744 213.94C302.131 214.647 302.324 215.5 302.324 216.5V223H300.064V216.84C300.064 215.853 299.817 215.1 299.324 214.58C298.831 214.047 298.157 213.78 297.304 213.78C296.451 213.78 295.771 214.047 295.264 214.58C294.771 215.1 294.524 215.853 294.524 216.84V223H292.244V211.98H294.524V213.24C294.897 212.787 295.371 212.433 295.944 212.18C296.531 211.927 297.151 211.8 297.804 211.8ZM315.152 211.98L308.392 228.18H306.032L308.272 222.82L303.932 211.98H306.472L309.572 220.38L312.792 211.98H315.152Z" fill="#455A64"/>
<defs>
<filter id="filter0_d_3_985" x="111.037" y="110.776" width="124.505" height="104.72" filterUnits="userSpaceOnUse" color-interpolation-filters="sRGB">
<feFlood flood-opacity="0" result="BackgroundImageFix"/>
<feColorMatrix in="SourceAlpha" type="matrix" values="0 0 0 0 0 0 0 0 0 0 0 0 0 0 0 0 0 0 127 0" result="hardAlpha"/>
<feOffset dx="6" dy="4"/>
<feGaussianBlur stdDeviation="8"/>
<feComposite in2="hardAlpha" operator="out"/>
<feColorMatrix type="matrix" values="0 0 0 0 0 0 0 0 0 0 0 0 0 0 0 0 0 0 0.19 0"/>
<feBlend mode="normal" in2="BackgroundImageFix" result="effect1_dropShadow_3_985"/>
<feBlend mode="normal" in="SourceGraphic" in2="effect1_dropShadow_3_985" result="shape"/>
</filter>
<filter id="filter1_d_3_985" x="31.7727" y="112.142" width="97.063" height="104.729" filterUnits="userSpaceOnUse" color-interpolation-filters="sRGB">
<feFlood flood-opacity="0" result="BackgroundImageFix"/>
<feColorMatrix in="SourceAlpha" type="matrix" values="0 0 0 0 0 0 0 0 0 0 0 0 0 0 0 0 0 0 127 0" result="hardAlpha"/>
<feOffset dx="6" dy="4"/>
<feGaussianBlur stdDeviation="8"/>
<feComposite in2="hardAlpha" operator="out"/>
<feColorMatrix type="matrix" values="0 0 0 0 0 0 0 0 0 0 0 0 0 0 0 0 0 0 0.19 0"/>
<feBlend mode="normal" in2="BackgroundImageFix" result="effect1_dropShadow_3_985"/>
<feBlend mode="normal" in="SourceGraphic" in2="effect1_dropShadow_3_985" result="shape"/>
</filter>
<filter id="filter2_d_3_985" x="98.5641" y="14.3916" width="124.924" height="122.684" filterUnits="userSpaceOnUse" color-interpolation-filters="sRGB">
<feFlood flood-opacity="0" result="BackgroundImageFix"/>
<feColorMatrix in="SourceAlpha" type="matrix" values="0 0 0 0 0 0 0 0 0 0 0 0 0 0 0 0 0 0 127 0" result="hardAlpha"/>
<feOffset dx="6" dy="4"/>
<feGaussianBlur stdDeviation="8"/>
<feComposite in2="hardAlpha" operator="out"/>
<feColorMatrix type="matrix" values="0 0 0 0 0 0 0 0 0 0 0 0 0 0 0 0 0 0 0.19 0"/>
<feBlend mode="normal" in2="BackgroundImageFix" result="effect1_dropShadow_3_985"/>
<feBlend mode="normal" in="SourceGraphic" in2="effect1_dropShadow_3_985" result="shape"/>
</filter>
<filter id="filter3_d_3_985" x="0" y="62.6162" width="50.653" height="152.861" filterUnits="userSpaceOnUse" color-interpolation-filters="sRGB">
<feFlood flood-opacity="0" result="BackgroundImageFix"/>
<feColorMatrix in="SourceAlpha" type="matrix" values="0 0 0 0 0 0 0 0 0 0 0 0 0 0 0 0 0 0 127 0" result="hardAlpha"/>
<feOffset dx="6" dy="4"/>
<feGaussianBlur stdDeviation="8"/>
<feComposite in2="hardAlpha" operator="out"/>
<feColorMatrix type="matrix" values="0 0 0 0 0 0 0 0 0 0 0 0 0 0 0 0 0 0 0.19 0"/>
<feBlend mode="normal" in2="BackgroundImageFix" result="effect1_dropShadow_3_985"/>
<feBlend mode="normal" in="SourceGraphic" in2="effect1_dropShadow_3_985" result="shape"/>
</filter>
<filter id="filter4_d_3_985" x="217.063" y="112.163" width="50.6355" height="103.314" filterUnits="userSpaceOnUse" color-interpolation-filters="sRGB">
<feFlood flood-opacity="0" result="BackgroundImageFix"/>
<feColorMatrix in="SourceAlpha" type="matrix" values="0 0 0 0 0 0 0 0 0 0 0 0 0 0 0 0 0 0 127 0" result="hardAlpha"/>
<feOffset dx="6" dy="4"/>
<feGaussianBlur stdDeviation="8"/>
<feComposite in2="hardAlpha" operator="out"/>
<feColorMatrix type="matrix" values="0 0 0 0 0 0 0 0 0 0 0 0 0 0 0 0 0 0 0.19 0"/>
<feBlend mode="normal" in2="BackgroundImageFix" result="effect1_dropShadow_3_985"/>
<feBlend mode="normal" in="SourceGraphic" in2="effect1_dropShadow_3_985" result="shape"/>
</filter>
<filter id="filter5_d_3_985" x="145.968" y="0" width="156.263" height="137.902" filterUnits="userSpaceOnUse" color-interpolation-filters="sRGB">
<feFlood flood-opacity="0" result="BackgroundImageFix"/>
<feColorMatrix in="SourceAlpha" type="matrix" values="0 0 0 0 0 0 0 0 0 0 0 0 0 0 0 0 0 0 127 0" result="hardAlpha"/>
<feOffset dx="6" dy="4"/>
<feGaussianBlur stdDeviation="8"/>
<feComposite in2="hardAlpha" operator="out"/>
<feColorMatrix type="matrix" values="0 0 0 0 0 0 0 0 0 0 0 0 0 0 0 0 0 0 0.19 0"/>
<feBlend mode="normal" in2="BackgroundImageFix" result="effect1_dropShadow_3_985"/>
<feBlend mode="normal" in="SourceGraphic" in2="effect1_dropShadow_3_985" result="shape"/>
</filter>
<filter id="filter6_d_3_985" x="56.9254" y="180.735" width="193.271" height="59.7217" filterUnits="userSpaceOnUse" color-interpolation-filters="sRGB">
<feFlood flood-opacity="0" result="BackgroundImageFix"/>
<feColorMatrix in="SourceAlpha" type="matrix" values="0 0 0 0 0 0 0 0 0 0 0 0 0 0 0 0 0 0 127 0" result="hardAlpha"/>
<feOffset dx="3" dy="2"/>
<feGaussianBlur stdDeviation="5.5"/>
<feComposite in2="hardAlpha" operator="out"/>
<feColorMatrix type="matrix" values="0 0 0 0 0 0 0 0 0 0 0 0 0 0 0 0 0 0 0.19 0"/>
<feBlend mode="normal" in2="BackgroundImageFix" result="effect1_dropShadow_3_985"/>
<feBlend mode="normal" in="SourceGraphic" in2="effect1_dropShadow_3_985" result="shape"/>
</filter>
<filter id="filter7_d_3_985" x="80.454" y="212.21" width="26.3585" height="26.3586" filterUnits="userSpaceOnUse" color-interpolation-filters="sRGB">
<feFlood flood-opacity="0" result="BackgroundImageFix"/>
<feColorMatrix in="SourceAlpha" type="matrix" values="0 0 0 0 0 0 0 0 0 0 0 0 0 0 0 0 0 0 127 0" result="hardAlpha"/>
<feOffset dx="3" dy="2"/>
<feGaussianBlur stdDeviation="5.5"/>
<feComposite in2="hardAlpha" operator="out"/>
<feColorMatrix type="matrix" values="0 0 0 0 0 0 0 0 0 0 0 0 0 0 0 0 0 0 0.19 0"/>
<feBlend mode="normal" in2="BackgroundImageFix" result="effect1_dropShadow_3_985"/>
<feBlend mode="normal" in="SourceGraphic" in2="effect1_dropShadow_3_985" result="shape"/>
</filter>
</defs>
</svg>
