<svg width="257" height="77" viewBox="0 0 257 77" fill="none" xmlns="http://www.w3.org/2000/svg">
<path d="M255.291 67.0286C255.291 67.9851 255.103 68.9323 254.736 69.8159C254.37 70.6996 253.833 71.5024 253.156 72.1784C252.479 72.8544 251.676 73.3904 250.791 73.7558C249.907 74.1212 248.959 74.3087 248.003 74.3077H9.47906C7.54582 74.3097 5.69092 73.544 4.32231 72.179C2.95369 70.8139 2.18343 68.9613 2.18091 67.0286V8.98002C2.18343 7.04642 2.95339 5.19284 4.32173 3.82629C5.69007 2.45973 7.54494 1.69191 9.47906 1.69141H248.001C248.958 1.69141 249.906 1.87995 250.79 2.24626C251.675 2.61257 252.478 3.14947 253.155 3.82631C253.832 4.50314 254.369 5.30665 254.735 6.19093C255.101 7.07522 255.29 8.02296 255.289 8.98002L255.291 67.0286Z" fill="white"/>
<path d="M248.002 76.0012H9.47837C7.09684 76.0007 4.81277 75.0557 3.12734 73.3736C1.44192 71.6915 0.492813 69.4096 0.488281 67.0287L0.488281 8.98201C0.491804 6.59993 1.44029 4.3165 3.12566 2.63265C4.81103 0.948791 7.09566 0.00201057 9.47837 0L248 0C250.382 0.0030138 252.667 0.950117 254.352 2.63375C256.037 4.31739 256.986 6.60024 256.99 8.98201V67.0287C256.994 71.9777 252.954 76.0012 248.002 76.0012Z" fill="#A6A6A6"/>
<path d="M255.291 67.0286C255.291 67.9851 255.103 68.9323 254.736 69.8159C254.37 70.6996 253.833 71.5024 253.156 72.1784C252.479 72.8544 251.676 73.3904 250.791 73.7558C249.907 74.1212 248.959 74.3087 248.003 74.3077H9.47906C7.54582 74.3097 5.69092 73.544 4.32231 72.179C2.95369 70.8139 2.18343 68.9613 2.18091 67.0286V8.98002C2.18343 7.04642 2.95339 5.19284 4.32173 3.82629C5.69007 2.45973 7.54494 1.69191 9.47906 1.69141H248.001C248.958 1.69141 249.906 1.87995 250.79 2.24626C251.675 2.61257 252.478 3.14947 253.155 3.82631C253.832 4.50314 254.369 5.30665 254.735 6.19093C255.101 7.07522 255.29 8.02296 255.289 8.98002L255.291 67.0286Z" fill="black"/>
<path d="M248 0H120.24L170.281 76.0012H248C250.382 75.9992 252.666 75.0529 254.351 73.3699C256.037 71.6869 256.986 69.4044 256.99 67.023V8.98201C256.986 6.60008 256.037 4.31695 254.352 2.6332C252.667 0.949454 250.383 0.00251237 248 0Z" fill="url(#paint0_linear_375_1558)"/>
<mask id="mask0_375_1558" style="mask-type:luminance" maskUnits="userSpaceOnUse" x="15" y="9" width="49" height="57">
<path d="M51.4928 29.8012L39.9269 23.1238C39.9269 23.1238 18.8563 10.9572 17.6176 10.2421C16.3789 9.52694 15.1448 9.96023 15.1448 11.4547V63.9362C15.1448 65.0565 16.0269 65.5394 17.1031 64.9186C18.1788 64.2968 39.9269 51.7399 39.9269 51.7399L51.4923 45.063C51.4923 45.063 61.3055 39.3978 62.6098 38.645C63.9142 37.8912 63.7888 36.8582 62.6881 36.2654C61.5878 35.6721 51.4928 29.8012 51.4928 29.8012Z" fill="white"/>
</mask>
<g mask="url(#mask0_375_1558)">
<path d="M15.145 9.02173V65.8421L43.7972 37.4322L15.145 9.02173Z" fill="url(#paint1_linear_375_1558)"/>
</g>
<mask id="mask1_375_1558" style="mask-type:luminance" maskUnits="userSpaceOnUse" x="15" y="9" width="49" height="57">
<path d="M51.4928 29.8012L39.9269 23.1238C39.9269 23.1238 18.8563 10.9572 17.6176 10.2421C16.3789 9.52694 15.1448 9.96023 15.1448 11.4547V63.9362C15.1448 65.0565 16.0269 65.5394 17.1031 64.9186C18.1788 64.2968 39.9269 51.7399 39.9269 51.7399L51.4923 45.063C51.4923 45.063 61.3055 39.3978 62.6098 38.645C63.9142 37.8912 63.7888 36.8582 62.6881 36.2654C61.5878 35.6721 51.4928 29.8012 51.4928 29.8012Z" fill="white"/>
</mask>
<g mask="url(#mask1_375_1558)">
<path d="M51.4925 29.8009L39.9267 23.1236L15.145 8.81506V9.02168L43.7972 37.4321L51.4925 29.8009Z" fill="url(#paint2_linear_375_1558)"/>
</g>
<mask id="mask2_375_1558" style="mask-type:luminance" maskUnits="userSpaceOnUse" x="15" y="9" width="49" height="57">
<path d="M51.4928 29.8012L39.9269 23.1238C39.9269 23.1238 18.8563 10.9572 17.6176 10.2421C16.3789 9.52694 15.1448 9.96023 15.1448 11.4547V63.9362C15.1448 65.0565 16.0269 65.5394 17.1031 64.9186C18.1788 64.2968 39.9269 51.7399 39.9269 51.7399L51.4923 45.063C51.4923 45.063 61.3055 39.3978 62.6098 38.645C63.9142 37.8912 63.7888 36.8582 62.6881 36.2654C61.5878 35.6721 51.4928 29.8012 51.4928 29.8012Z" fill="white"/>
</mask>
<g mask="url(#mask2_375_1558)">
<path d="M15.145 65.8421V66.0487L39.9267 51.7396L51.492 45.0623L43.7972 37.4321L15.145 65.8421Z" fill="url(#paint3_linear_375_1558)"/>
</g>
<mask id="mask3_375_1558" style="mask-type:luminance" maskUnits="userSpaceOnUse" x="15" y="9" width="49" height="57">
<path d="M51.4928 29.8012L39.9269 23.1238C39.9269 23.1238 18.8563 10.9572 17.6176 10.2421C16.3789 9.52694 15.1448 9.96023 15.1448 11.4547V63.9362C15.1448 65.0565 16.0269 65.5394 17.1031 64.9186C18.1788 64.2967 39.9269 51.7399 39.9269 51.7399L51.4923 45.063C51.4923 45.063 61.3055 39.3978 62.6098 38.645C63.9142 37.8912 63.7888 36.8582 62.6881 36.2654C61.5878 35.6721 51.4928 29.8012 51.4928 29.8012Z" fill="white"/>
</mask>
<g mask="url(#mask3_375_1558)">
<path d="M51.493 29.8008L43.7976 37.432L51.4925 45.0621L64.7102 37.4315L51.493 29.8008Z" fill="url(#paint4_linear_375_1558)"/>
</g>
<path d="M196.78 53.4246C195.703 53.4246 194.721 53.226 193.832 52.8293C192.943 52.4321 192.196 51.8213 191.593 50.9979H191.412C191.532 51.9627 191.593 52.8775 191.593 53.7415V60.5412H189.091V36.5986H191.126L191.472 38.8603H191.593C192.236 37.9551 192.986 37.3027 193.84 36.9005C194.694 36.4983 195.674 36.2972 196.779 36.2972C198.971 36.2972 200.662 37.0464 201.853 38.5439C203.044 40.0413 203.639 42.1426 203.639 44.8456C203.639 47.5597 203.034 49.6674 201.823 51.1714C200.612 52.6738 198.931 53.4246 196.78 53.4246ZM196.417 38.423C194.729 38.423 193.508 38.8909 192.754 39.8252C192 40.7599 191.613 42.2479 191.593 44.2885V44.8456C191.593 47.168 191.98 48.8289 192.754 49.8294C193.528 50.83 194.77 51.3289 196.478 51.3289C197.906 51.3289 199.024 50.7517 199.834 49.5957C200.642 48.4403 201.047 46.8471 201.047 44.8155C201.047 42.7559 200.642 41.1742 199.834 40.0739C199.025 38.9726 197.885 38.423 196.417 38.423ZM209.435 53.1227H206.932V29.663H209.435V53.1227ZM223.824 53.1227L223.326 50.7707H223.206C222.381 51.8068 221.56 52.5084 220.74 52.8739C219.921 53.2415 218.898 53.4246 217.673 53.4246C216.034 53.4246 214.75 53.0024 213.82 52.1583C212.89 51.3144 212.426 50.1137 212.426 48.5551C212.426 45.2187 215.094 43.4695 220.431 43.308L223.237 43.2172V42.1922C223.237 40.8953 222.957 39.9375 222.399 39.3202C221.842 38.7013 220.948 38.3924 219.723 38.3924C218.346 38.3924 216.788 38.8147 215.049 39.6587L214.28 37.744C215.095 37.3017 215.986 36.9552 216.957 36.7039C217.927 36.4526 218.899 36.3268 219.874 36.3268C221.844 36.3268 223.304 36.7636 224.254 37.6382C225.204 38.5128 225.678 39.9149 225.678 41.8452V53.1222H223.824L223.824 53.1227ZM218.17 51.3594C219.727 51.3594 220.951 50.9321 221.841 50.0781C222.73 49.2241 223.176 48.0275 223.176 46.489V44.9965L220.672 45.1013C218.682 45.1731 217.248 45.481 216.367 46.0301C215.488 46.5777 215.048 47.4298 215.048 48.5857C215.048 49.4899 215.322 50.1789 215.87 50.6503C216.418 51.1232 217.184 51.3594 218.17 51.3594ZM227.131 36.5986H229.814L233.433 46.022C234.227 48.1734 234.72 49.7261 234.911 50.6814H235.032C235.163 50.1679 235.437 49.2918 235.853 48.0491C236.27 46.8074 237.635 42.9915 239.946 36.5986H242.631L235.529 55.415C234.826 57.2745 234.004 58.5939 233.063 59.3742C232.124 60.1525 230.97 60.5412 229.605 60.5412C228.84 60.5412 228.087 60.456 227.342 60.2855V58.2805C227.894 58.4008 228.513 58.4615 229.197 58.4615C230.916 58.4615 232.141 57.4966 232.876 55.5664L233.795 53.2149L227.131 36.5986ZM150.417 38.1341C151.212 38.7916 152.871 40.1727 152.871 42.801C152.871 45.3571 151.419 46.5692 149.967 47.7081C149.518 48.1569 148.999 48.6423 148.999 49.4036C148.999 50.1623 149.517 50.5776 149.899 50.889L151.143 51.8549C152.664 53.1342 154.045 54.3102 154.045 56.6958C154.045 59.9444 150.9 63.2267 144.956 63.2267C139.944 63.2267 137.525 60.8426 137.525 58.2835C137.525 57.0398 138.145 55.278 140.187 54.0669C142.328 52.7535 145.233 52.5825 146.788 52.4763C146.303 51.8549 145.751 51.198 145.751 50.1283C145.751 49.5415 145.924 49.1955 146.096 48.7788C145.715 48.8139 145.335 48.8485 144.989 48.8485C141.327 48.8485 139.253 46.1179 139.253 43.4234C139.253 41.8331 139.98 40.0694 141.464 38.7921C143.435 37.1678 145.785 36.8904 147.653 36.8904H154.771L152.559 38.1346H150.417L150.417 38.1341ZM147.962 53.4807C147.686 53.4446 147.513 53.4446 147.169 53.4446C146.858 53.4446 144.989 53.5154 143.539 54.0003C142.779 54.2746 140.566 55.1041 140.566 57.5594C140.566 60.0122 142.952 61.7774 146.651 61.7774C149.966 61.7774 151.731 60.1842 151.731 58.0433C151.731 56.2771 150.59 55.3478 147.962 53.4807ZM148.965 46.9127C149.759 46.1169 149.827 45.0121 149.827 44.3892C149.827 41.9013 148.342 38.0303 145.474 38.0303C144.574 38.0303 143.608 38.4792 143.054 39.1712C142.468 39.8969 142.293 40.8292 142.293 41.7288C142.293 44.0442 143.641 47.8811 146.615 47.8811C147.479 47.8811 148.41 47.4664 148.965 46.9127ZM128.658 52.9276C123.172 52.9276 120.239 48.6484 120.239 44.7829C120.239 40.2619 123.931 36.399 129.178 36.399C134.248 36.399 137.423 40.3658 137.423 44.5421C137.423 48.6123 134.284 52.9276 128.658 52.9276ZM132.971 50.1328C133.8 49.0275 134.007 47.6479 134.007 46.301C134.007 43.2634 132.558 37.4672 128.279 37.4672C127.141 37.4672 126.002 37.9165 125.174 38.6427C123.828 39.8487 123.586 41.3678 123.586 42.8532C123.586 46.2669 125.277 51.89 129.453 51.89C130.798 51.89 132.179 51.2356 132.971 50.1328ZM109.955 52.9276C104.468 52.9276 101.534 48.6484 101.534 44.7829C101.534 40.2619 105.227 36.399 110.473 36.399C115.545 36.399 118.719 40.3658 118.719 44.5421C118.72 48.6123 115.58 52.9276 109.955 52.9276ZM114.269 50.1328C115.097 49.0275 115.304 47.6479 115.304 46.301C115.304 43.2634 113.854 37.4672 109.575 37.4672C108.437 37.4672 107.298 37.9165 106.47 38.6427C105.124 39.8487 104.883 41.3678 104.883 42.8532C104.883 46.2669 106.573 51.89 110.75 51.89C112.096 51.89 113.476 51.2356 114.269 50.1328ZM98.8986 52.3865L93.9369 53.5314C91.9239 53.8443 90.1206 54.1196 88.2134 54.1196C78.6369 54.1196 74.9956 47.0767 74.9956 41.5603C74.9956 34.8309 80.164 28.5878 89.0118 28.5878C90.8858 28.5878 92.6882 28.8646 94.3185 29.3159C96.9203 30.0446 98.1344 30.9458 98.8981 31.4669L96.0176 34.2075L94.804 34.4838L95.6711 33.0957C94.4921 31.9518 92.3392 29.836 88.247 29.836C82.7652 29.836 78.636 34.0009 78.636 40.0714C78.636 46.5918 83.355 52.7325 90.9164 52.7325C93.139 52.7325 94.2815 52.2822 95.323 51.8649V46.2808L90.0855 46.5582L92.8597 45.0648H100.215L99.3139 45.9319C99.0692 46.141 99.0356 46.2112 98.9664 46.486C98.9303 46.7989 98.8977 47.8059 98.8977 48.1525V52.3865H98.8986V52.3865Z" fill="#F9F9F9"/>
<path d="M161.382 51.3877C160.237 51.2834 159.997 51.0763 159.997 49.7218V30.0864C160.004 30.0117 160.009 29.935 160.016 29.8627C160.156 28.6491 160.502 28.441 161.579 27.8157H156.616L154.013 29.0649H156.666V29.0804L156.664 29.0679V50.486C156.664 51.1786 156.527 51.2839 155.728 52.3235H161.869L163.153 51.5622C162.564 51.4905 161.973 51.4569 161.382 51.3877ZM175.499 51.7067C175.122 51.9138 174.742 52.156 174.365 52.327C173.226 52.8436 172.055 52.982 171.019 52.982C169.92 52.982 168.195 52.9108 166.437 51.6375C163.993 49.9133 162.924 46.9506 162.924 44.3674C162.924 39.028 167.265 36.4097 170.814 36.4097C172.054 36.4097 173.331 36.7191 174.364 37.3751C176.085 38.51 176.533 39.9914 176.773 40.7842L168.678 44.0585L166.025 44.2651C166.885 48.6406 169.848 51.1881 173.122 51.1881C174.879 51.1881 176.154 50.5693 177.325 49.9846L175.499 51.7067ZM172.262 41.4382C172.915 41.1979 173.26 40.9903 173.26 40.5084C173.26 39.1313 171.71 37.5456 169.848 37.5456C168.468 37.5456 165.886 38.6143 165.886 42.3344C165.886 42.9201 165.955 43.5399 165.991 44.1623L172.262 41.4382ZM178.825 36.6454V38.9187H178.548V36.6454H177.796V36.4097H179.576V36.6454H178.825ZM181.924 38.9187V36.6244H181.911L181.211 38.9187H180.995L180.289 36.6244H180.28V38.9187H180.029V36.4097H180.459L181.098 38.4377H181.107L181.736 36.4097H182.172V38.9187H181.924Z" fill="#F9F9F9"/>
<path d="M81.8865 21.8328H80.1624C80.1624 21.5956 79.9989 20.9241 79.6719 19.8178H77.183C76.8455 20.9061 76.6765 21.5775 76.6765 21.8328H75.0552C75.0552 21.6929 75.4744 20.5435 76.3129 18.3851C77.1514 16.2267 77.5707 15.0376 77.5707 14.819H79.6072C79.6072 15.0236 79.9868 16.1951 80.7466 18.3339C81.5063 20.4728 81.8865 21.6388 81.8865 21.8328ZM79.3975 18.7888C78.7833 16.9357 78.4763 15.9338 78.4763 15.7828H78.3901C78.3901 15.9228 78.0721 16.9247 77.4368 18.7888H79.3975ZM88.8331 21.8328H87.5027C87.5027 21.6854 87.0087 20.9081 86.0213 19.5004C84.9872 18.017 84.3979 17.003 84.2546 16.4569H84.1683C84.2581 17.2432 84.3032 17.9543 84.3032 18.5902C84.3032 19.4774 84.3283 20.5586 84.3785 21.8334H83.053C83.1066 20.7201 83.1338 19.4974 83.1338 18.165C83.1338 16.8541 83.1067 15.7388 83.053 14.8195H84.6527C84.6527 15.0101 85.0961 15.7699 85.9832 17.0983C86.9275 18.5095 87.4701 19.4668 87.6101 19.9698H87.6908C87.6046 19.169 87.5614 18.4508 87.5614 17.8149C87.5614 16.8421 87.5363 15.8431 87.4862 14.8195H88.8332C88.7825 15.7102 88.7579 16.8255 88.7579 18.165C88.7574 19.5144 88.7825 20.7371 88.8331 21.8328ZM96.6408 18.0832C96.6408 19.1032 96.3139 19.9939 95.6604 20.7552C95.0065 21.5169 94.0907 21.8971 92.9127 21.8971C92.3812 21.8971 91.6485 21.8755 90.7147 21.8323C90.7613 20.7477 90.7849 19.5245 90.7849 18.164C90.7849 16.8571 90.7613 15.7418 90.7147 14.8185H91.6576C91.812 14.8185 92.0417 14.813 92.3471 14.8024C92.652 14.7919 92.8516 14.7864 92.9448 14.7864C94.2412 14.7864 95.181 15.1099 95.7652 15.7563C96.349 16.4027 96.6408 17.178 96.6408 18.0832ZM95.1704 18.3148C95.1704 17.6253 94.9693 17.0446 94.5671 16.5717C94.1649 16.0998 93.5506 15.8636 92.7246 15.8636C92.5702 15.8636 92.3586 15.8796 92.0888 15.9122C92.1244 16.6308 92.1424 17.3811 92.1424 18.1639C92.1424 19.0225 92.1605 19.8735 92.196 20.7175C92.4265 20.764 92.661 20.7875 92.8961 20.7877C93.6684 20.7877 94.2401 20.5476 94.6117 20.0681C94.9834 19.5887 95.1704 19.0044 95.1704 18.3148ZM103.841 21.8328H102.246C101.829 20.5616 101.51 19.7767 101.287 19.4788C101.065 19.1805 100.705 19.0315 100.21 19.0315C100.001 19.0315 99.8022 19.0335 99.6122 19.037C99.6122 19.9603 99.6282 20.892 99.6608 21.8328H98.1634C98.21 20.7481 98.2336 19.525 98.2336 18.1644C98.2336 16.8576 98.21 15.7422 98.1634 14.819H99.0951C99.2029 14.819 99.4281 14.8135 99.7712 14.8029C100.114 14.7924 100.431 14.7869 100.722 14.7869C102.37 14.7869 103.195 15.3505 103.195 16.4784C103.195 17.3726 102.724 17.9954 101.784 18.348V18.4287C102.146 18.529 102.464 18.8124 102.737 19.2767C103.009 19.7416 103.377 20.5937 103.841 21.8328ZM101.821 16.8766C101.821 16.1619 101.361 15.8044 100.442 15.8044C100.104 15.8044 99.8057 15.8295 99.5475 15.8796C99.5871 16.4363 99.6066 17.162 99.6066 18.0561C99.8043 18.0636 99.9713 18.0666 100.108 18.0666C101.25 18.0671 101.821 17.6705 101.821 16.8766ZM111.563 18.1965C111.563 19.2988 111.225 20.213 110.55 20.9386C109.874 21.6638 109.039 22.0269 108.045 22.0269C107.096 22.0269 106.303 21.6939 105.664 21.0274C105.024 20.3614 104.705 19.5144 104.705 18.4879C104.705 17.3856 105.042 16.4714 105.718 15.7457C106.393 15.0206 107.228 14.6575 108.223 14.6575C109.171 14.6575 109.964 14.9895 110.604 15.6539C111.243 16.3184 111.563 17.1655 111.563 18.1965ZM110.076 18.3525C110.076 17.6018 109.884 16.993 109.5 16.5261C109.115 16.0592 108.641 15.826 108.078 15.826C107.553 15.826 107.108 16.0612 106.742 16.5316C106.376 17.002 106.192 17.5963 106.192 18.3149C106.192 19.0616 106.385 19.6694 106.771 20.1383C107.157 20.6072 107.63 20.8414 108.191 20.8414C108.715 20.8414 109.161 20.6052 109.527 20.1328C109.893 19.6609 110.076 19.0671 110.076 18.3525ZM114.609 21.8328H113.084C113.131 20.7195 113.154 19.4969 113.154 18.1644C113.154 16.8535 113.131 15.7382 113.084 14.819H114.609C114.562 15.7242 114.539 16.839 114.539 18.1644C114.539 19.518 114.562 20.7411 114.609 21.8328ZM122.417 18.0832C122.417 19.1032 122.09 19.9939 121.437 20.7552C120.783 21.5169 119.867 21.8971 118.689 21.8971C118.157 21.8971 117.425 21.8755 116.491 21.8323C116.537 20.7477 116.561 19.5245 116.561 18.164C116.561 16.8571 116.537 15.7418 116.491 14.8185H117.434C117.588 14.8185 117.818 14.813 118.123 14.8024C118.428 14.7919 118.628 14.7864 118.721 14.7864C120.017 14.7864 120.957 15.1099 121.541 15.7563C122.125 16.4027 122.417 17.178 122.417 18.0832ZM120.947 18.3148C120.947 17.6253 120.745 17.0446 120.343 16.5717C119.941 16.0998 119.327 15.8636 118.501 15.8636C118.346 15.8636 118.135 15.8796 117.865 15.9122C117.9 16.6308 117.918 17.3811 117.918 18.1639C117.918 19.0225 117.937 19.8735 117.972 20.7175C118.203 20.764 118.437 20.7875 118.672 20.7877C119.444 20.7877 120.016 20.5476 120.388 20.0681C120.759 19.5887 120.947 19.0044 120.947 18.3148ZM132.776 21.8328H131.052C131.052 21.5956 130.888 20.9241 130.561 19.8178H128.072C127.734 20.9061 127.565 21.5775 127.565 21.8328H125.944C125.944 21.6929 126.364 20.5435 127.202 18.3851C128.041 16.2267 128.46 15.0376 128.46 14.819H130.496C130.496 15.0236 130.877 16.1951 131.636 18.3339C132.395 20.4728 132.776 21.6388 132.776 21.8328ZM130.287 18.7888C129.672 16.9357 129.365 15.9338 129.365 15.7828H129.279C129.279 15.9228 128.961 16.9247 128.326 18.7888H130.287ZM139.059 16.6554C139.059 17.514 138.74 18.1479 138.103 18.5571C137.466 18.9663 136.684 19.1714 135.757 19.1714C135.588 19.1714 135.468 19.1679 135.396 19.1609C135.396 19.8364 135.415 20.7265 135.455 21.8328H133.941C133.988 20.7953 134.011 19.5721 134.011 18.1644C134.011 16.8716 133.988 15.7563 133.941 14.819H134.878C135.011 14.819 135.266 14.8135 135.643 14.8029C136.02 14.7924 136.347 14.7869 136.624 14.7869C137.306 14.7869 137.882 14.9413 138.353 15.2502C138.823 15.5592 139.059 16.0271 139.059 16.6554ZM137.67 16.9518C137.67 16.1835 137.16 15.7989 136.14 15.7989C135.884 15.7989 135.615 15.8259 135.332 15.8796C135.371 16.5587 135.391 17.3269 135.391 18.1855C135.481 18.193 135.585 18.196 135.703 18.196C137.014 18.1965 137.67 17.7818 137.67 16.9518ZM145.521 16.6554C145.521 17.514 145.202 18.1479 144.565 18.5571C143.927 18.9663 143.145 19.1714 142.218 19.1714C142.049 19.1714 141.929 19.1679 141.857 19.1609C141.857 19.8364 141.877 20.7265 141.916 21.8328H140.402C140.449 20.7953 140.473 19.5721 140.473 18.1644C140.473 16.8716 140.449 15.7563 140.402 14.819H141.34C141.473 14.819 141.727 14.8135 142.104 14.8029C142.482 14.7924 142.808 14.7869 143.085 14.7869C143.767 14.7869 144.344 14.9413 144.814 15.2502C145.284 15.5592 145.521 16.0271 145.521 16.6554ZM144.131 16.9518C144.131 16.1835 143.621 15.7989 142.601 15.7989C142.346 15.7989 142.076 15.8259 141.793 15.8796C141.833 16.5587 141.852 17.3269 141.852 18.1855C141.942 18.193 142.046 18.196 142.165 18.196C143.476 18.1965 144.131 17.7818 144.131 16.9518ZM156.084 18.1965C156.084 19.2988 155.747 20.213 155.071 20.9386C154.396 21.6643 153.561 22.0269 152.567 22.0269C151.618 22.0269 150.824 21.6939 150.185 21.0274C149.547 20.3614 149.227 19.5144 149.227 18.4879C149.227 17.3856 149.564 16.4714 150.24 15.7457C150.915 15.02 151.75 14.6575 152.745 14.6575C153.693 14.6575 154.487 14.9895 155.126 15.6539C155.765 16.3184 156.084 17.1655 156.084 18.1965ZM154.598 18.3525C154.598 17.6018 154.405 16.993 154.021 16.5261C153.637 16.0592 153.163 15.826 152.599 15.826C152.075 15.826 151.629 16.0612 151.263 16.5316C150.897 17.002 150.714 17.5963 150.714 18.3149C150.714 19.0616 150.907 19.6694 151.293 20.1383C151.679 20.6072 152.152 20.8414 152.712 20.8414C153.237 20.8414 153.682 20.6052 154.048 20.1328C154.415 19.6609 154.598 19.0671 154.598 18.3525ZM163.386 21.8328H162.056C162.056 21.6854 161.562 20.9081 160.574 19.5004C159.54 18.017 158.951 17.003 158.808 16.4569H158.721C158.811 17.2432 158.856 17.9543 158.856 18.5902C158.856 19.4774 158.881 20.5586 158.932 21.8334H157.606C157.66 20.7201 157.687 19.4974 157.687 18.165C157.687 16.8541 157.66 15.7388 157.606 14.8195H159.206C159.206 15.0101 159.65 15.7699 160.536 17.0983C161.481 18.5095 162.023 19.4668 162.163 19.9698H162.244C162.158 19.169 162.114 18.4508 162.114 17.8149C162.114 16.8421 162.089 15.8431 162.039 14.8195H163.386C163.336 15.7102 163.311 16.8255 163.311 18.165C163.311 19.5144 163.336 20.7371 163.386 21.8328Z" fill="#F9F9FA"/>
<defs>
<linearGradient id="paint0_linear_375_1558" x1="188.613" y1="76.203" x2="188.613" y2="-197.894" gradientUnits="userSpaceOnUse">
<stop stop-color="#1A1A1A" stop-opacity="0.1"/>
<stop offset="0.123" stop-color="#212121" stop-opacity="0.151"/>
<stop offset="0.308" stop-color="#353535" stop-opacity="0.227"/>
<stop offset="0.532" stop-color="#575757" stop-opacity="0.318"/>
<stop offset="0.783" stop-color="#858585" stop-opacity="0.421"/>
<stop offset="1" stop-color="#B3B3B3" stop-opacity="0.51"/>
</linearGradient>
<linearGradient id="paint1_linear_375_1558" x1="29.4711" y1="9.02181" x2="29.4711" y2="65.8422" gradientUnits="userSpaceOnUse">
<stop stop-color="#257CB0"/>
<stop offset="0.286" stop-color="#4A93B5"/>
<stop offset="0.767" stop-color="#78BCBB"/>
<stop offset="1" stop-color="#89CFBD"/>
</linearGradient>
<linearGradient id="paint2_linear_375_1558" x1="15.1455" y1="23.1232" x2="51.493" y2="23.1232" gradientUnits="userSpaceOnUse">
<stop stop-color="#52C1AD"/>
<stop offset="1" stop-color="#DEE89A"/>
</linearGradient>
<linearGradient id="paint3_linear_375_1558" x1="33.3185" y1="37.4322" x2="33.3185" y2="66.0488" gradientUnits="userSpaceOnUse">
<stop stop-color="#EC413D"/>
<stop offset="0.167" stop-color="#DA4452"/>
<stop offset="0.575" stop-color="#B0487A"/>
<stop offset="0.862" stop-color="#954A92"/>
<stop offset="1" stop-color="#8A4A9D"/>
</linearGradient>
<linearGradient id="paint4_linear_375_1558" x1="54.2541" y1="29.8009" x2="54.2541" y2="45.0617" gradientUnits="userSpaceOnUse">
<stop stop-color="#F58879"/>
<stop offset="0.119" stop-color="#F69079"/>
<stop offset="0.713" stop-color="#FCB877"/>
<stop offset="1" stop-color="#FEC874"/>
</linearGradient>
</defs>
</svg>
