<svg width="1060" height="146" viewBox="0 0 1060 146" fill="none" xmlns="http://www.w3.org/2000/svg">
<g opacity="0.45">
<g style="mix-blend-mode:luminosity">
<path d="M301.749 82.091C299.792 83.0876 298.304 84.8059 297.607 86.8757C296.834 88.8898 296.873 91.9007 296.65 94.0412L296.687 94.0273L296.638 94.0221C294.481 93.8324 291.526 93.1634 289.379 93.507C287.198 93.7707 285.205 94.8734 283.829 96.5778C283.125 97.6458 282.704 98.8719 282.604 100.142C282.504 101.413 282.729 102.686 283.258 103.845C284.352 106.159 286.132 108.085 288.36 109.364C291.468 111.22 295.038 112.179 298.672 112.132C302.305 112.085 305.857 111.035 308.93 109.099L308.939 109.134C311.496 106.533 313.271 103.277 314.062 99.7331C314.854 96.1893 314.631 92.5004 313.419 89.084C312.609 86.6581 311.072 84.538 309.013 83.0066C307.98 82.2603 306.772 81.7853 305.503 81.6253C304.233 81.4653 302.942 81.6255 301.749 82.091Z" fill="#8B8B8B"/>
</g>
<path d="M338.528 88.2234C335.821 87.558 332.96 87.9853 330.566 89.413C327.998 91.134 325.651 93.1641 323.579 95.4577L323.61 95.4609L323.571 95.4032C321.691 92.9508 319.54 90.7184 317.159 88.7489C314.867 87.1498 312.038 86.5149 309.282 86.9807C307.702 87.4152 306.259 88.2452 305.089 89.3922C303.919 90.5392 303.06 91.9655 302.594 93.5364C301.647 96.6805 301.693 100.04 302.726 103.157C304.094 107.512 306.641 111.403 310.085 114.4C313.529 117.396 317.735 119.381 322.237 120.134C326.869 119.818 331.32 118.212 335.088 115.499C338.856 112.786 341.789 109.073 343.558 104.78C344.841 101.773 345.187 98.4485 344.55 95.2417C344.217 93.66 343.49 92.1879 342.438 90.9613C341.385 89.7346 340.041 88.793 338.528 88.2234Z" fill="#ED7C7C"/>
</g>
<g opacity="0.45">
<g style="mix-blend-mode:luminosity">
<path d="M740.749 82.091C738.792 83.0876 737.304 84.8059 736.607 86.8757C735.834 88.8898 735.873 91.9007 735.65 94.0412L735.687 94.0273L735.638 94.0221C733.481 93.8324 730.526 93.1634 728.379 93.507C726.198 93.7707 724.205 94.8734 722.829 96.5778C722.125 97.6458 721.704 98.8719 721.604 100.142C721.504 101.413 721.729 102.686 722.258 103.845C723.352 106.159 725.132 108.085 727.36 109.364C730.468 111.22 734.038 112.179 737.672 112.132C741.305 112.085 744.857 111.035 747.93 109.099L747.939 109.134C750.496 106.533 752.271 103.277 753.062 99.7331C753.854 96.1893 753.631 92.5004 752.419 89.084C751.609 86.6581 750.072 84.538 748.013 83.0066C746.98 82.2603 745.772 81.7853 744.503 81.6253C743.233 81.4653 741.942 81.6255 740.749 82.091Z" fill="#8B8B8B"/>
</g>
<path d="M777.528 88.2234C774.821 87.558 771.96 87.9853 769.566 89.413C766.998 91.134 764.651 93.1641 762.579 95.4577L762.61 95.4609L762.571 95.4032C760.691 92.9508 758.54 90.7184 756.159 88.7489C753.867 87.1498 751.038 86.5149 748.282 86.9807C746.702 87.4152 745.259 88.2452 744.089 89.3922C742.919 90.5392 742.06 91.9655 741.594 93.5364C740.647 96.6805 740.693 100.04 741.726 103.157C743.094 107.512 745.641 111.403 749.085 114.4C752.529 117.396 756.735 119.381 761.237 120.134C765.869 119.818 770.32 118.212 774.088 115.499C777.856 112.786 780.789 109.073 782.558 104.78C783.841 101.773 784.187 98.4485 783.55 95.2417C783.217 93.66 782.49 92.1879 781.438 90.9613C780.385 89.7346 779.041 88.793 777.528 88.2234Z" fill="#ED7C7C"/>
</g>
<path d="M27.028 123.688H53.012V139H7.192V57.568H27.028V123.688ZM72.4493 67.544C68.9693 67.544 66.1079 66.5387 63.8653 64.528C61.6999 62.44 60.6173 59.888 60.6173 56.872C60.6173 53.7787 61.6999 51.2267 63.8653 49.216C66.1079 47.128 68.9693 46.084 72.4493 46.084C75.8519 46.084 78.6359 47.128 80.8013 49.216C83.0439 51.2267 84.1653 53.7787 84.1653 56.872C84.1653 59.888 83.0439 62.44 80.8013 64.528C78.6359 66.5387 75.8519 67.544 72.4493 67.544ZM82.3093 74.272V139H62.4733V74.272H82.3093ZM136.24 139L116.52 111.856V139H96.6842V53.16H116.52V100.604L136.124 74.272H160.6L133.688 106.752L160.832 139H136.24ZM229.407 105.592C229.407 107.448 229.291 109.381 229.059 111.392H184.167C184.477 115.413 185.753 118.507 187.995 120.672C190.315 122.76 193.138 123.804 196.463 123.804C201.413 123.804 204.854 121.716 206.787 117.54H227.899C226.817 121.793 224.845 125.621 221.983 129.024C219.199 132.427 215.681 135.095 211.427 137.028C207.174 138.961 202.418 139.928 197.159 139.928C190.818 139.928 185.173 138.575 180.223 135.868C175.274 133.161 171.407 129.295 168.623 124.268C165.839 119.241 164.447 113.364 164.447 106.636C164.447 99.908 165.801 94.0307 168.507 89.004C171.291 83.9773 175.158 80.1107 180.107 77.404C185.057 74.6973 190.741 73.344 197.159 73.344C203.423 73.344 208.991 74.6587 213.863 77.288C218.735 79.9173 222.525 83.668 225.231 88.54C228.015 93.412 229.407 99.096 229.407 105.592ZM209.107 100.372C209.107 96.9693 207.947 94.2627 205.627 92.252C203.307 90.2413 200.407 89.236 196.927 89.236C193.602 89.236 190.779 90.2027 188.459 92.136C186.217 94.0693 184.825 96.8147 184.283 100.372H209.107ZM431.782 123.688H457.766V139H411.946V57.568H431.782V123.688ZM496.691 139.928C490.35 139.928 484.627 138.575 479.523 135.868C474.496 133.161 470.514 129.295 467.575 124.268C464.714 119.241 463.283 113.364 463.283 106.636C463.283 99.9853 464.752 94.1467 467.691 89.12C470.63 84.016 474.651 80.1107 479.755 77.404C484.859 74.6973 490.582 73.344 496.923 73.344C503.264 73.344 508.987 74.6973 514.091 77.404C519.195 80.1107 523.216 84.016 526.155 89.12C529.094 94.1467 530.563 99.9853 530.563 106.636C530.563 113.287 529.055 119.164 526.039 124.268C523.1 129.295 519.04 133.161 513.859 135.868C508.755 138.575 503.032 139.928 496.691 139.928ZM496.691 122.76C500.48 122.76 503.69 121.368 506.319 118.584C509.026 115.8 510.379 111.817 510.379 106.636C510.379 101.455 509.064 97.472 506.435 94.688C503.883 91.904 500.712 90.512 496.923 90.512C493.056 90.512 489.847 91.904 487.295 94.688C484.743 97.3947 483.467 101.377 483.467 106.636C483.467 111.817 484.704 115.8 487.179 118.584C489.731 121.368 492.902 122.76 496.691 122.76ZM570.203 120.44L584.239 74.272H605.351L582.383 139H557.907L534.939 74.272H556.167L570.203 120.44ZM674.716 105.592C674.716 107.448 674.6 109.381 674.368 111.392H629.476C629.785 115.413 631.061 118.507 633.304 120.672C635.624 122.76 638.446 123.804 641.772 123.804C646.721 123.804 650.162 121.716 652.096 117.54H673.208C672.125 121.793 670.153 125.621 667.292 129.024C664.508 132.427 660.989 135.095 656.736 137.028C652.482 138.961 647.726 139.928 642.468 139.928C636.126 139.928 630.481 138.575 625.532 135.868C620.582 133.161 616.716 129.295 613.932 124.268C611.148 119.241 609.756 113.364 609.756 106.636C609.756 99.908 611.109 94.0307 613.816 89.004C616.6 83.9773 620.466 80.1107 625.416 77.404C630.365 74.6973 636.049 73.344 642.468 73.344C648.732 73.344 654.3 74.6587 659.172 77.288C664.044 79.9173 667.833 83.668 670.54 88.54C673.324 93.412 674.716 99.096 674.716 105.592ZM654.416 100.372C654.416 96.9693 653.256 94.2627 650.936 92.252C648.616 90.2413 645.716 89.236 642.236 89.236C638.91 89.236 636.088 90.2027 633.768 92.136C631.525 94.0693 630.133 96.8147 629.592 100.372H654.416ZM852.508 123.688H878.492V139H832.672V57.568H852.508V123.688ZM897.93 67.544C894.45 67.544 891.588 66.5387 889.346 64.528C887.18 62.44 886.098 59.888 886.098 56.872C886.098 53.7787 887.18 51.2267 889.346 49.216C891.588 47.128 894.45 46.084 897.93 46.084C901.332 46.084 904.116 47.128 906.282 49.216C908.524 51.2267 909.646 53.7787 909.646 56.872C909.646 59.888 908.524 62.44 906.282 64.528C904.116 66.5387 901.332 67.544 897.93 67.544ZM907.79 74.272V139H887.954V74.272H907.79ZM951.281 120.44L965.317 74.272H986.429L963.461 139H938.985L916.017 74.272H937.245L951.281 120.44ZM1055.79 105.592C1055.79 107.448 1055.68 109.381 1055.45 111.392H1010.55C1010.86 115.413 1012.14 118.507 1014.38 120.672C1016.7 122.76 1019.52 123.804 1022.85 123.804C1027.8 123.804 1031.24 121.716 1033.17 117.54H1054.29C1053.2 121.793 1051.23 125.621 1048.37 129.024C1045.59 132.427 1042.07 135.095 1037.81 137.028C1033.56 138.961 1028.8 139.928 1023.55 139.928C1017.2 139.928 1011.56 138.575 1006.61 135.868C1001.66 133.161 997.794 129.295 995.01 124.268C992.226 119.241 990.834 113.364 990.834 106.636C990.834 99.908 992.187 94.0307 994.894 89.004C997.678 83.9773 1001.54 80.1107 1006.49 77.404C1011.44 74.6973 1017.13 73.344 1023.55 73.344C1029.81 73.344 1035.38 74.6587 1040.25 77.288C1045.12 79.9173 1048.91 83.668 1051.62 88.54C1054.4 93.412 1055.79 99.096 1055.79 105.592ZM1035.49 100.372C1035.49 96.9693 1034.33 94.2627 1032.01 92.252C1029.69 90.2413 1026.79 89.236 1023.31 89.236C1019.99 89.236 1017.17 90.2027 1014.85 92.136C1012.6 94.0693 1011.21 96.8147 1010.67 100.372H1035.49Z" fill="#545454" fill-opacity="0.25"/>
</svg>
